<?xml version="1.0" encoding="UTF-8"?>
<svg version="1.1" viewBox="0 0 1e3 700" xmlns="http://www.w3.org/2000/svg">
  <title>Arduino Uno R3</title>
  <path d="m153.02 36.398c-5.8378 0.7389-8.7116 4.4441-10.172 9.5605l0.121 608.98c0 4.8502 4.0791 8.5781 8.4086 8.5781h759.11c5.1729-0.85707 7.3706-4.1367 8.1445-8.5781l1.7344-20.797 24.195-24.213 4.7461-16.91v-377.08c-9.9382-10.574-28.379-28.986-28.379-28.986l-0.63281-136.71-13.848-13.727zm167.39 9.998c10.27-5.83e-4 18.597 8.101 18.598 18.096 1.9e-4 9.9954-8.3265 18.098-18.598 18.098-10.27-4.6e-4 -18.596-8.103-18.596-18.098 9.2e-4 -9.9939 8.3261-18.095 18.596-18.096zm600.74 179.94c10.242-3.9e-4 18.545 8.3027 18.545 18.545 3.9e-4 10.242-8.3027 18.545-18.545 18.545-10.242 3.9e-4 -18.545-8.3027-18.545-18.545-3.9e-4 -10.242 8.3027-18.545 18.545-18.545zm-0.34766 331.54c9.5724-5.4e-4 17.333 7.7596 17.332 17.332-5.4e-4 9.5717-7.7604 17.331-17.332 17.33-9.5709-5.4e-4 -17.33-7.7592-17.33-17.33-5.4e-4 -9.5717 7.7584-17.331 17.33-17.332zm-614.72 59.348c9.5709 5.4e-4 17.33 7.7592 17.33 17.33 5.4e-4 9.5717-7.7584 17.331-17.33 17.332-9.5724 5.4e-4 -17.333-7.7596-17.332-17.332 5.4e-4 -9.5717 7.7604-17.331 17.332-17.33z" style="fill:#017e7b"/>
  <path d="m519.75 302.7h94.294v43.137h-94.294zm-82.379-223.5h28.853v51.647h-28.853zm35.506 66.898h13.287v10.399h-13.287zm202.88 7.2736h222.96v3.125h-222.96zm-190.21-17.672h191.07v20.797h-191.07zm355.83 417.31h59.119v3.5773h-59.119zm-117.71 0h119.27v20.797h-119.27zm-179.06-0.15613h81.283v3.8128h-81.283zm80.182 0h72.27v20.797h-72.27zm-18.544 34.662h58.232v76.083h-58.232z" style="fill:#f2f3fb;stroke-width:3"/>
  <path d="m354.36 616.54h29.499v28.782h-29.499zm50.409 0h29.499v28.782h-29.499zm-130.68-358.16h11.765v14.174h-11.765zm20.104 0h11.765v14.174h-11.765zm86.245 55.877a5.1993 5.1993 0 0 1-5.1993 5.1993 5.1993 5.1993 0 0 1-5.1993-5.1993 5.1993 5.1993 0 0 1 5.1993-5.1993 5.1993 5.1993 0 0 1 5.1993 5.1993zm-19.179 0a5.1993 5.1993 0 0 1-5.1993 5.1993 5.1993 5.1993 0 0 1-5.1993-5.1993 5.1993 5.1993 0 0 1 5.1993-5.1993 5.1993 5.1993 0 0 1 5.1993 5.1993zm27.034-7.7369h11.765v14.174h-11.765zm20.104 0h11.765v14.174h-11.765zm422.69 56.819v-21.175h25.511v21.175zm0-36.184v-21.175h25.511v21.175zm-548.52-181.06v-21.175h25.511v21.175zm0-36.184v-21.175h25.511v21.175zm30.26 196.61h11.765v14.174h-11.765zm20.104 0h11.765v14.174h-11.765zm253.46 253.85h11.765v14.174h-11.765zm20.104 0h11.765v14.174h-11.765zm-392.18-439.04h11.765v14.174h-11.765zm20.104 0h11.765v14.174h-11.765zm40.796 69.238h11.765v14.174h-11.765zm20.104 0h11.765v14.174h-11.765zm67.426 276.56v11.108h-11.054v-11.108zm0 18.982v11.108h-11.054v-11.108zm84.559-18.982v11.108h-11.054v-11.108zm0 18.982v11.108h-11.054v-11.108zm201.77 48.228h11.765v14.174h-11.765zm20.104 0h11.765v14.174h-11.765zm-400.8-230.35h11.765v14.174h-11.765zm20.104 0h11.765v14.174h-11.765zm376.79 83.882h11.765v14.174h-11.765zm20.104 0h11.765v14.174h-11.765zm-229.95-83.882h11.765v14.174h-11.765zm20.104 0h11.765v14.174h-11.765zm339.59-80.082h33.973v14.623h-33.973zm-539.91-62.706h11.765v14.174h-11.765zm20.104 0h11.765v14.174h-11.765zm160.11 123.18h11.765v14.174h-11.765zm20.104 0h11.765v14.174h-11.765zm-23.743-127.32h37.984v16.349h-37.984zm0.11673 93.366h37.868v16.299h-37.868zm0-27.383h37.868v16.299h-37.868z" style="fill:#8c948f"/>
  <path d="m480.94 411.77h414.79c1.6628 0 3.0014 1.8294 3.0014 4.1017v110.42c0 2.2723-1.3386 4.1017-3.0014 4.1017h-414.79c-1.6628 0-3.0014-1.8294-3.0014-4.1017v-110.42c0-2.2723 1.3386-4.1017 3.0014-4.1017z" style="fill:#1a1a1a;stroke-width:.3"/>
  <path d="m481.91 428.92h413.34c1.657 0 2.991 1.338 2.991 3v80.765c0 1.662-1.334 3-2.991 3h-413.34c-1.657 0-2.991-1.338-2.991-3v-80.765c0-1.662 1.334-3 2.991-3z" style="fill:#2b2b2b;stroke-width:.3"/>
  <path d="m876.97 515.69h11.779v5.6158h-11.779zm-30.515 0h17.932v5.6158h-17.932zm-30.515 0h17.932v5.6158h-17.932zm-30.515 0h17.932v5.6158h-17.932zm-30.515 0h17.932v5.6158h-17.932zm-30.515 0h17.932v5.6158h-17.932zm-30.515 0h17.932v5.6158h-17.932zm-30.515 0h17.932v5.6158h-17.932zm-30.515 0h17.932v5.6158h-17.932zm-30.515 0h17.932v5.6158h-17.932zm-30.515 0h17.932v5.6158h-17.932zm-30.515 0h17.932v5.6158h-17.932zm-30.515 0h17.932v5.6158h-17.932zm-23.917 0h13.079v5.6158h-13.079zm389.07-92.381h13.079v5.6158h-13.079zm-28.943 0h17.932v5.6158h-17.932zm-31.111 0h17.932v5.6158h-17.932zm-30.069 0h17.932v5.6158h-17.932zm-30.936 0h17.932v5.6158h-17.932zm-30.244 0h17.932v5.6158h-17.932zm-31.198 0h17.932v5.6158h-17.932zm-30.156 0h17.932v5.6158h-17.932zm-30.156 0h17.932v5.6158h-17.932zm-30.156 0h17.932v5.6158h-17.932zm-30.963 0h17.932v5.6158h-17.932zm-30.963 0h17.932v5.6158h-17.932zm-30.27 0h17.932v5.6158h-17.932zm-24.816 0h12.478v5.6158h-12.478z" style="fill:#c7c3c2;stroke-width:.3"/>
  <path d="m462.58 75.28h444.8v3.125h-444.8z" style="fill:#cccccc;stroke-width:.3"/>
  <path d="m450.69 621.82h465.37v32.108h-465.37z" style="fill:#1a1a1a;stroke-width:.3"/>
  <path d="m892.33 631.84h12.053v12.062h-12.053zm-30.872 0h12.053v12.062h-12.053zm-30.872 0h12.053v12.062h-12.053zm-30.872 0h12.053v12.062h-12.053zm-30.872 0h12.053v12.062h-12.053zm-30.872 0h12.053v12.062h-12.053zm-60.485 0h12.053v12.062h-12.053zm-30.77 0h12.053v12.062h-12.053zm-30.77 0h12.053v12.062h-12.053zm-30.77 0h12.053v12.062h-12.053zm-30.77 0h12.053v12.062h-12.053zm-30.77 0h12.053v12.062h-12.053zm-30.77 0h12.053v12.062h-12.053zm-30.77 0h12.053v12.062h-12.053z" style="stroke-width:1.25"/>
  <path d="m904.38 631.84 4.4468-4.4424h-20.942l4.4338 4.4424zm-42.934 0h12.062l4.4468-4.4424h-20.942zm-35.306-4.4424 4.4338 4.4424h12.062l4.4468-4.4424zm-9.9298 0h-20.942l4.4338 4.4424h12.062zm-35.319 4.4424 4.4468-4.4424h-20.942l4.4338 4.4424zm-30.872 0 4.4468-4.4424h-20.942l4.4338 4.4424zm-56.039-4.4424h-20.942l4.4338 4.4424h12.062zm-30.77 0h-20.942l4.4338 4.4424h12.062zm-35.217 4.4424 4.4468-4.4424h-20.942l4.4338 4.4424zm-42.832 0h12.062l4.4468-4.4424h-20.942zm-35.204-4.4424 4.4338 4.4424h12.062l4.4468-4.4424zm-9.8277 0h-20.942l4.4338 4.4424h12.062zm-35.217 4.4424 4.4468-4.4424h-20.942l4.4338 4.4424zm-30.77 0 4.4468-4.4424h-20.942l4.4338 4.4424z" style="fill:#2a2a29;stroke-width:1.25"/>
  <path d="m904.38 643.91 4.4468 4.4338v-20.947l-4.4468 4.4598zm-30.872-12.053v12.053l4.4468 4.4338v-20.947zm-26.425-4.4598-4.4468 4.4598v12.053l4.4468 4.4338zm-30.872 20.947v-20.947l-4.4468 4.4598v12.053zm-35.319-4.4338 4.4468 4.4338v-20.947l-4.4468 4.4598zm-30.872 0 4.4468 4.4338v-20.947l-4.4468 4.4598zm-56.039 4.4338v-20.947l-4.4468 4.4598v12.053zm-30.77 0v-20.947l-4.4468 4.4598v12.053zm-35.217-4.4338 4.4468 4.4338v-20.947l-4.4468 4.4598zm-30.77-12.053v12.053l4.4468 4.4338v-20.947zm-26.323-4.4598-4.4468 4.4598v12.053l4.4468 4.4338zm-30.77 20.947v-20.947l-4.4468 4.4598v12.053zm-35.217-4.4338 4.4468 4.4338v-20.947l-4.4468 4.4598zm-26.323-16.513-4.4468 4.4598v12.053l4.4468 4.4338z" style="fill:#474747;stroke-width:1.25"/>
  <path d="m892.32 643.91-4.4338 4.4338h20.938l-4.4468-4.4338zm-18.815 0h-12.057l-4.4338 4.4338h20.938zm-26.425 4.4338-4.4468-4.4338h-12.057l-4.4338 4.4338zm-51.81 0h20.938l-4.4468-4.4338h-12.057zm-26.438-4.4338-4.4338 4.4338h20.938l-4.4468-4.4338zm-30.872 0-4.4338 4.4338h20.938l-4.4468-4.4338zm-64.919 4.4338h20.938l-4.4468-4.4338h-12.057zm-30.77 0h20.938l-4.4468-4.4338h-12.057zm-26.336-4.4338-4.4338 4.4338h20.938l-4.4468-4.4338zm-18.713 0h-12.057l-4.4338 4.4338h20.938zm-26.323 4.4338-4.4468-4.4338h-12.057l-4.4338 4.4338zm-51.708 0h20.938l-4.4468-4.4338h-12.057zm-26.336-4.4338-4.4338 4.4338h20.938l-4.4468-4.4338zm-14.266 4.4338-4.4468-4.4338h-12.057l-4.4338 4.4338z" style="fill:#595959;stroke-width:1.25"/>
  <path d="m892.32 631.84-4.4424-4.4424v20.947l4.4424-4.4424zm-30.872 12.062v-12.062l-4.4424-4.4424v20.947zm-35.314 4.4424 4.4424-4.4424v-12.062l-4.4424-4.4424zm-30.872-20.947v20.947l4.4424-4.4424v-12.062zm-26.43 4.4424-4.4424-4.4424v20.947l4.4424-4.4424zm-30.872 0-4.4424-4.4424v20.947l4.4424-4.4424zm-64.928-4.4424v20.947l4.4424-4.4424v-12.062zm-30.77 0v20.947l4.4424-4.4424v-12.062zm-26.328 4.4424-4.4424-4.4424v20.947l4.4424-4.4424zm-30.77 12.062v-12.062l-4.4424-4.4424v20.947zm-35.212 4.4424 4.4424-4.4424v-12.062l-4.4424-4.4424zm-30.77-20.947v20.947l4.4424-4.4424v-12.062zm-26.327 4.4424-4.4424-4.4424v20.947l4.4424-4.4424zm-35.212 16.504 4.4424-4.4424v-12.062l-4.4424-4.4424z" style="fill:#373737;stroke-width:1.25"/>
  <path d="m339.24 39.155h575.71v32.108h-575.71z" style="fill:#1a1a1a;stroke-width:.3"/>
  <path d="m890.76 49.178h12.053v12.062h-12.053zm-30.714 0h12.053v12.062h-12.053zm-30.714 0h12.053v12.062h-12.053zm-30.714 0h12.053v12.062h-12.053zm-30.714 0h12.053v12.062h-12.053zm-30.714 0h12.053v12.062h-12.053zm-30.714 0h12.053v12.062h-12.053zm-30.714 0h12.053v12.062h-12.053zm-48.701 0h12.053v12.062h-12.053zm-30.713 0h12.053v12.062h-12.053zm-30.713 0h12.053v12.062h-12.053zm-30.713 0h12.053v12.062h-12.053zm-30.713 0h12.053v12.062h-12.053zm-30.713 0h12.053v12.062h-12.053zm-30.713 0h12.053v12.062h-12.053zm-30.713 0h12.053v12.062h-12.053zm-30.713 0h12.053v12.062h-12.053zm-30.713 0h12.053v12.062h-12.053z" style="stroke-width:1.25"/>
  <path d="m890.75 49.178h12.062l4.4468-4.4424h-20.942zm-30.714 0h12.062l4.4468-4.4424h-20.942zm-35.147-4.4424 4.4338 4.4424h12.062l4.4468-4.4424zm-9.7713 0h-20.942l4.4338 4.4424h12.062zm-35.16 4.4424 4.4468-4.4424h-20.942l4.4338 4.4424zm-42.775 0h12.062l4.4468-4.4424h-20.942zm-35.147-4.4424 4.4338 4.4424h12.062l4.4468-4.4424zm-14.218 4.4424 4.4468-4.4424h-20.942l4.4338 4.4424zm-60.763 0h12.062l4.4468-4.4424h-20.942zm-14.205-4.4424h-20.942l4.4338 4.4424h12.062zm-51.655 0 4.4338 4.4424h12.062l4.4468-4.4424zm-30.713 0 4.4338 4.4424h12.062l4.4468-4.4424zm-9.7708 0h-20.942l4.4338 4.4424h12.062zm-35.16 4.4424 4.4468-4.4424h-20.942l4.4338 4.4424zm-42.775 0h12.062l4.4468-4.4424h-20.942zm-35.147-4.4424 4.4338 4.4424h12.062l4.4468-4.4424zm-9.7708 0h-20.942l4.4338 4.4424h12.062zm-35.16 4.4424 4.4468-4.4424h-20.942l4.4338 4.4424z" style="fill:#2a2a29;stroke-width:1.25"/>
  <path d="m902.81 49.195v12.053l4.4468 4.4338v-20.947zm-30.714 0v12.053l4.4468 4.4338v-20.947zm-26.267-4.4598-4.4468 4.4598v12.053l4.4468 4.4338zm-30.714 20.947v-20.947l-4.4468 4.4598v12.053zm-35.16-4.4338 4.4468 4.4338v-20.947l-4.4468 4.4598zm-30.714-12.053v12.053l4.4468 4.4338v-20.947zm-26.267-4.4598-4.4468 4.4598v12.053l4.4468 4.4338zm-35.16 16.513 4.4468 4.4338v-20.947l-4.4468 4.4598zm-48.701-12.053v12.053l4.4468 4.4338v-20.947zm-26.266 16.487v-20.947l-4.4468 4.4598v12.053zm-30.713-20.947-4.4468 4.4598v12.053l4.4468 4.4338zm-30.713 0-4.4468 4.4598v12.053l4.4468 4.4338zm-30.713 20.947v-20.947l-4.4468 4.4598v12.053zm-35.16-4.4338 4.4468 4.4338v-20.947l-4.4468 4.4598zm-30.713-12.053v12.053l4.4468 4.4338v-20.947zm-26.266-4.4598-4.4468 4.4598v12.053l4.4468 4.4338zm-30.713 20.947v-20.947l-4.4468 4.4598v12.053zm-35.16-4.4338 4.4468 4.4338v-20.947l-4.4468 4.4598z" style="fill:#474747;stroke-width:1.25"/>
  <path d="m902.81 61.248h-12.057l-4.4338 4.4338h20.938zm-30.714 0h-12.057l-4.4338 4.4338h20.938zm-26.267 4.4338-4.4468-4.4338h-12.057l-4.4338 4.4338zm-51.651 0h20.938l-4.4468-4.4338h-12.057zm-26.28-4.4338-4.4338 4.4338h20.938l-4.4468-4.4338zm-18.656 0h-12.057l-4.4338 4.4338h20.938zm-26.267 4.4338-4.4468-4.4338h-12.057l-4.4338 4.4338zm-47.218-4.4338-4.4338 4.4338h20.938l-4.4468-4.4338zm-36.644 0h-12.057l-4.4338 4.4338h20.938zm-47.204 4.4338h20.938l-4.4468-4.4338h-12.057zm-9.7752 0-4.4468-4.4338h-12.057l-4.4338 4.4338zm-30.713 0-4.4468-4.4338h-12.057l-4.4338 4.4338zm-51.651 0h20.938l-4.4468-4.4338h-12.057zm-26.279-4.4338-4.4338 4.4338h20.938l-4.4468-4.4338zm-18.656 0h-12.057l-4.4338 4.4338h20.938zm-26.266 4.4338-4.4468-4.4338h-12.057l-4.4338 4.4338zm-51.651 0h20.938l-4.4468-4.4338h-12.057zm-26.279-4.4338-4.4338 4.4338h20.938l-4.4468-4.4338z" style="fill:#595959;stroke-width:1.25"/>
  <path d="m890.75 61.24v-12.062l-4.4424-4.4424v20.947zm-30.714 0v-12.062l-4.4424-4.4424v20.947zm-35.156 4.4424 4.4424-4.4424v-12.062l-4.4424-4.4424zm-30.714-20.947v20.947l4.4424-4.4424v-12.062zm-26.271 4.4424-4.4424-4.4424v20.947l4.4424-4.4424zm-30.714 12.062v-12.062l-4.4424-4.4424v20.947zm-35.156 4.4424 4.4424-4.4424v-12.062l-4.4424-4.4424zm-26.271-16.504-4.4424-4.4424v20.947l4.4424-4.4424zm-48.701 12.062v-12.062l-4.4424-4.4424v20.947zm-35.156-16.504v20.947l4.4424-4.4424v-12.062zm-30.713 20.947 4.4424-4.4424v-12.062l-4.4424-4.4424zm-30.713 0 4.4424-4.4424v-12.062l-4.4424-4.4424zm-30.713-20.947v20.947l4.4424-4.4424v-12.062zm-26.271 4.4424-4.4424-4.4424v20.947l4.4424-4.4424zm-30.713 12.062v-12.062l-4.4424-4.4424v20.947zm-35.156 4.4424 4.4424-4.4424v-12.062l-4.4424-4.4424zm-30.713-20.947v20.947l4.4424-4.4424v-12.062zm-26.271 4.4424-4.4424-4.4424v20.947l4.4424-4.4424z" style="fill:#373737;stroke-width:1.25"/>
  <path d="m686.48 179.12a10.485 10.485 0 0 1-10.485 10.485 10.485 10.485 0 0 1-10.485-10.485 10.485 10.485 0 0 1 10.485-10.485 10.485 10.485 0 0 1 10.485 10.485z" style="fill:none;stroke-width:2;stroke:#f5f9fc"/>
  <path d="m519.75 302.7h158.39v43.137h-158.39z" style="fill:none;stroke-width:3;stroke:#f2f3fb"/>
  <path d="m597.19 324.17q0 2.7812-0.65625 4.7969-0.64062 2.0156-1.7812 3.3125-1.125 1.2969-2.6562 1.9219-1.5156 0.625-3.25 0.625-4.0312 0-6.0625-2.6719-2.0312-2.6875-2.0312-7.7969 0-2.7812 0.64063-4.7969 0.65625-2.0156 1.7812-3.3125 1.1406-1.2969 2.6562-1.9219 1.5312-0.625 3.2656-0.625 4.0312 0 6.0625 2.6719 2.0312 2.6719 2.0312 7.7969zm-4.0625 0.1875q0-3.625-0.96875-5.4062t-3.1875-1.7812q-1.1094 0-1.8906 0.46875-0.78125 0.45312-1.2969 1.3438-0.5 0.89062-0.73437 2.2031-0.23438 1.2969-0.23438 2.9844 0 3.625 0.96875 5.4062 0.98438 1.7812 3.1875 1.7812 1.1094 0 1.8906-0.45313 0.79687-0.46875 1.2969-1.3594 0.5-0.89063 0.73438-2.1875 0.23437-1.3125 0.23437-3zm-23.984 10.109-5.4688-12.188-1.125-2.625v14.812h-3.5v-20.422h4.7188l5.5781 12.266 0.98438 2.3906v-14.656h3.5v20.422zm-17.922-7.5156q0 1.9531-0.53125 3.4375-0.51562 1.4688-1.5 2.4531-0.96875 0.98438-2.375 1.4844t-3.1562 0.5q-1.9688 0-3.375-0.5t-2.2812-1.4375-1.2656-2.2812q-0.39063-1.3438-0.39063-3.0156v-13.547h3.8438v13.312q0 1.0312 0.17188 1.8281 0.1875 0.79688 0.625 1.3594 0.45312 0.54687 1.125 0.82812 0.67187 0.28125 1.6875 0.28125 0.95312 0 1.6094-0.23437 0.65625-0.25 1.0938-0.78125 0.4375-0.54688 0.65625-1.3906t0.21875-2.0469v-13.156h3.8438zm47.696-179.8v-2.1191h6.0742v2.1191zm71.516-1.6016q0 0.76172-0.15625 1.4551-0.15625 0.68359-0.50781 1.2109-0.35156 0.51758-0.92773 0.82032-0.56641 0.30273-1.3867 0.30273-0.54688 0-0.9961-0.17578-0.43945-0.18555-0.81054-0.44922-0.36133-0.27344-0.67383-0.58594-0.30274-0.32226-0.58594-0.58593-0.2832-0.26368-0.55664-0.43946-0.27344-0.18554-0.57617-0.18554-0.42969 0-0.66406 0.38085-0.23438 0.38086-0.23438 1.3379h-2.002q0-0.76172 0.15625-1.4453 0.15625-0.69336 0.50781-1.2109 0.35156-0.51758 0.91797-0.82032 0.57617-0.30273 1.3965-0.30273 0.54688 0 0.98633 0.18555 0.44922 0.17578 0.81055 0.44921 0.37109 0.26368 0.67383 0.57618 0.3125 0.3125 0.5957 0.58593 0.2832 0.26368 0.55664 0.44922 0.27344 0.17578 0.57617 0.17578 0.43945 0 0.66406-0.38086 0.23438-0.39062 0.23438-1.3476zm-15.096 6.9238-0.23438-7.2168-0.0879-2.8809-0.61523 1.9531-1.416 4.3457h-1.5039l-1.2793-4.3457-0.53711-1.9531-0.0684 2.8223-0.21484 7.2754h-2.041l0.625-12.764h2.7148l1.123 3.623 0.53711 2.041 0.53711-1.9238 1.1816-3.7402h2.7637l0.63477 12.764zm-11.473 0h-2.8223l-1.2598-3.9356-0.45898-1.6016-0.43946 1.6406-1.2402 3.8965h-2.7051l-0.71289-12.764h2.1191l0.30274 8.1836 0.0781 2.2363 0.57617-1.9922 1.4062-4.541h1.5137l1.4844 4.8145 0.47852 1.6992 0.0391-1.9922 0.32226-8.4082h2.041zm-12.781-8.7012q0 0.9961-0.33203 1.8457-0.33203 0.83984-0.98633 1.4551-0.65429 0.61523-1.6309 0.95703-0.97656 0.34179-2.2656 0.34179h-1.2207v4.1016h-2.4219v-12.764h3.7402q1.2402 0 2.1875 0.27344 0.95703 0.26367 1.6016 0.78125 0.65429 0.51758 0.98633 1.2793 0.34179 0.75195 0.34179 1.7285zm-2.5195 0.16602q0-0.50781-0.16601-0.91797-0.15625-0.41992-0.48829-0.71289-0.32226-0.29297-0.82031-0.44922-0.49804-0.15625-1.1816-0.15625h-1.2598v4.6777h1.3379q0.625 0 1.1035-0.16602 0.47852-0.17578 0.80078-0.49805 0.33203-0.32226 0.49805-0.77148 0.17578-0.44922 0.17578-1.0059zm-55.1 8.5303v-12.764h2.4414v10.703h5.3906v2.0605zm-6.6191 0-0.70313-2.5195h-4.4531l-0.72266 2.5195h-2.3828l3.7793-12.764h3.3594l3.7793 12.764zm-2.9004-10.42-1.6797 5.9375h3.3398zm-11.668-0.3418v10.762h-2.4609v-10.762h-3.4961v-2.002h9.4531v2.002zm-18.26-0.0391v-1.9629h8.0664v1.9629h-2.8125v8.8184h2.8125v1.9824h-8.0664v-1.9824h2.8125v-8.8184zm-8.9043 5.4004v-1.9824h4.541v6.8066q-0.8789 0.41016-1.8359 0.60547-0.95704 0.19531-2.0801 0.19531-1.3281 0-2.3926-0.41015-1.0547-0.41016-1.7969-1.2207-0.74218-0.81054-1.1426-2.0117-0.39063-1.2012-0.39063-2.7832 0-1.5918 0.41016-2.8516 0.41992-1.2598 1.2109-2.1289 0.80079-0.8789 1.9531-1.3379 1.1621-0.45898 2.6465-0.45898 0.87891 0 1.709 0.15625 0.83984 0.14648 1.6699 0.40039v2.373q-0.72266-0.34179-1.6016-0.55664-0.86914-0.22461-1.7578-0.22461-0.89844 0-1.5918 0.3125-0.6836 0.3125-1.1524 0.88868-0.45898 0.57617-0.70312 1.416-0.23438 0.83985-0.23438 1.8945 0 1.0156 0.18555 1.8359 0.18555 0.81055 0.5957 1.3867 0.41993 0.56641 1.0742 0.86914 0.6543 0.30273 1.5918 0.30273 0.22461 0 0.39063-0.01 0.16601-0.0195 0.3125-0.0488 0.14648-0.0293 0.27343-0.0684 0.13672-0.0391 0.28321-0.0879v-3.2617zm-17.088-5.4004v-1.9629h8.0664v1.9629h-2.8125v8.8184h2.8125v1.9824h-8.0664v-1.9824h2.8125v-8.8184zm-3.9824 4.2578q0 1.4844-0.37109 2.6953-0.36133 1.2109-1.1426 2.0703-0.77148 0.84961-1.9824 1.3184-1.2109 0.45898-2.9004 0.45898h-3.2422v-12.764h3.7793q1.4648 0 2.5586 0.37109 1.1035 0.36133 1.8359 1.123t1.0938 1.9336q0.37109 1.1719 0.37109 2.793zm-2.5781 0.15625q0-1.0352-0.16602-1.8457-0.16601-0.81055-0.5664-1.3672-0.39063-0.5664-1.0547-0.85937t-1.6504-0.29297h-1.2207v8.7402h1.0547q1.7676 0 2.6856-1.0547 0.91797-1.0547 0.91797-3.3203zm333.23 423.71-3.418-7.6172-0.70313-1.6406v9.2578h-2.1875v-12.764h2.9492l3.4863 7.666 0.61523 1.4941v-9.1602h2.1875v12.764zm-18.758-10.801v-1.9629h8.0664v1.9629h-2.8125v8.8184h2.8125v1.9824h-8.0664v-1.9824h2.8125v-8.8184zm-17.06 5.1758v-1.9824h4.541v6.8066q-0.87891 0.41015-1.8359 0.60547-0.95703 0.19531-2.0801 0.19531-1.3281 0-2.3926-0.41016-1.0547-0.41015-1.7969-1.2207t-1.1426-2.0117q-0.39062-1.2012-0.39062-2.7832 0-1.5918 0.41015-2.8516 0.41992-1.2598 1.2109-2.1289 0.80078-0.87891 1.9531-1.3379 1.1621-0.45899 2.6465-0.45899 0.8789 0 1.709 0.15625 0.83985 0.14649 1.6699 0.40039v2.373q-0.72265-0.3418-1.6016-0.55664-0.86914-0.22461-1.7578-0.22461-0.89844 0-1.5918 0.3125-0.68359 0.3125-1.1523 0.88867-0.45899 0.57617-0.70313 1.416-0.23437 0.83984-0.23437 1.8945 0 1.0156 0.18555 1.8359 0.18554 0.81054 0.5957 1.3867 0.41992 0.5664 1.0742 0.86914 0.65429 0.30273 1.5918 0.30273 0.22461 0 0.39063-0.01 0.16602-0.0195 0.3125-0.0488t0.27344-0.0684q0.13672-0.0391 0.2832-0.0879v-3.2617zm-7.918-1.0352q0 1.7383-0.41015 2.998-0.40039 1.2598-1.1133 2.0703-0.70313 0.81055-1.6602 1.2012-0.94727 0.39063-2.0312 0.39063-2.5195 0-3.7891-1.6699-1.2695-1.6797-1.2695-4.873 0-1.7383 0.40039-2.998 0.41015-1.2598 1.1133-2.0703 0.71289-0.81055 1.6602-1.2012 0.95703-0.39063 2.041-0.39063 2.5195 0 3.7891 1.6699 1.2695 1.6699 1.2695 4.873zm-2.5391 0.11719q0-2.2656-0.60547-3.3789t-1.9922-1.1133q-0.69336 0-1.1816 0.29297-0.48828 0.2832-0.81054 0.83984-0.3125 0.55664-0.45899 1.377-0.14648 0.81054-0.14648 1.8652 0 2.2656 0.60547 3.3789 0.61523 1.1133 1.9922 1.1133 0.69336 0 1.1816-0.2832 0.49805-0.29297 0.81055-0.84961t0.45899-1.3672q0.14648-0.82031 0.14648-1.875zm-19.168 6.3184v-12.764h2.4414v10.703h5.3906v2.0606zm-6.6191 0-0.70312-2.5195h-4.4531l-0.72266 2.5195h-2.3828l3.7793-12.764h3.3594l3.7793 12.764zm-2.9004-10.42-1.6797 5.9375h3.3398zm-11.17 10.42-3.418-7.6172-0.70313-1.6406v9.2578h-2.1875v-12.764h2.9492l3.4863 7.666 0.61524 1.4941v-9.1602h2.1875v12.764zm-11.922 0-0.70312-2.5195h-4.4531l-0.72265 2.5195h-2.3828l3.7793-12.764h3.3594l3.7793 12.764zm-2.9004-10.42-1.6797 5.9375h3.3398zm-45.719 10.42-1.7969-4.1016q-0.2539-0.58594-0.71289-0.87891-0.44921-0.30273-1.0644-0.30273h-0.45898v5.2832h-2.4024v-12.764h3.7207q1.0547 0 1.9141 0.18554 0.85937 0.17578 1.4648 0.59571 0.60547 0.41992 0.92774 1.0938 0.33203 0.67382 0.33203 1.6504 0 0.70312-0.20508 1.25-0.20508 0.54687-0.57617 0.94726-0.3711 0.39063-0.88867 0.63477-0.50782 0.24414-1.1133 0.3418 0.46875 0.0977 0.85938 0.5371 0.39062 0.42969 0.78125 1.25l2.041 4.2774zm-0.5957-9.0039q0-0.9375-0.59571-1.3476-0.5957-0.41016-1.7871-0.41016h-1.0547v3.6035h0.97656q0.55664 0 1.0059-0.11719 0.45898-0.11719 0.78125-0.35156 0.32226-0.23438 0.49805-0.57618 0.17578-0.35156 0.17578-0.80078zm-18.299 9.0039v-12.764h7.6856v2.0312h-5.2442v3.1738h5v1.9824h-5v3.5449h5.2442v2.0312zm-4.832 0h-2.8223l-1.2598-3.9356-0.45899-1.6016-0.43945 1.6406-1.2402 3.8965h-2.7051l-0.71289-12.764h2.1191l0.30273 8.1836 0.0781 2.2363 0.57617-1.9922 1.4062-4.541h1.5137l1.4844 4.8144 0.47852 1.6992 0.0391-1.9922 0.32227-8.4082h2.041zm-12.322-6.4356q0 1.7383-0.41015 2.998-0.4004 1.2598-1.1133 2.0703-0.70312 0.81055-1.6602 1.2012-0.94727 0.39063-2.0312 0.39063-2.5195 0-3.7891-1.6699-1.2695-1.6797-1.2695-4.873 0-1.7383 0.40039-2.998 0.41016-1.2598 1.1133-2.0703 0.71289-0.81055 1.6602-1.2012 0.95703-0.39063 2.041-0.39063 2.5195 0 3.7891 1.6699 1.2695 1.6699 1.2695 4.873zm-2.5391 0.11719q0-2.2656-0.60547-3.3789t-1.9922-1.1133q-0.69336 0-1.1816 0.29297-0.48828 0.2832-0.81054 0.83984-0.3125 0.55664-0.45899 1.377-0.14648 0.81054-0.14648 1.8652 0 2.2656 0.60547 3.3789 0.61523 1.1133 1.9922 1.1133 0.69336 0 1.1816-0.2832 0.49805-0.29297 0.81055-0.84961t0.45898-1.3672q0.14649-0.82031 0.14649-1.875zm-10.916-2.3828q0 0.99609-0.33203 1.8457-0.33203 0.83984-0.98633 1.4551-0.65429 0.61523-1.6309 0.95703-0.97656 0.3418-2.2656 0.3418h-1.2207v4.1016h-2.4219v-12.764h3.7402q1.2402 0 2.1875 0.27343 0.95703 0.26368 1.6016 0.78125 0.6543 0.51758 0.98633 1.2793 0.34179 0.75195 0.34179 1.7285zm-2.5195 0.16601q0-0.50781-0.16601-0.91797-0.15625-0.41992-0.48828-0.71289-0.32227-0.29297-0.82032-0.44922-0.49804-0.15625-1.1816-0.15625h-1.2598v4.6777h1.3379q0.625 0 1.1035-0.16602 0.47852-0.17578 0.80078-0.49804 0.33204-0.32227 0.49805-0.77149 0.17578-0.44922 0.17578-1.0059zm13.703 37.45q0 1.3359-0.33399 2.4258-0.32519 1.0898-1.0283 1.8633-0.69433 0.76465-1.7842 1.1865-1.0898 0.41308-2.6104 0.41308h-2.918v-11.487h3.4014q1.3184 0 2.3027 0.33398 0.99317 0.3252 1.6524 1.0107 0.65918 0.68555 0.98437 1.7402 0.33399 1.0547 0.33399 2.5137zm-2.3203 0.14063q0-0.93164-0.14941-1.6611-0.14941-0.72949-0.50977-1.2305-0.35156-0.50976-0.94921-0.77343-0.59766-0.26368-1.4854-0.26368h-1.0986v7.8662h0.94922q1.5908 0 2.417-0.94922t0.82617-2.9883zm-10.503 5.748-3.0762-6.8555-0.63281-1.4766v8.332h-1.9688v-11.487h2.6543l3.1377 6.8994 0.55371 1.3447v-8.2441h1.9688v11.487zm-11.399-4.8604v-1.7842h4.0869v6.126q-0.79101 0.36914-1.6523 0.54492t-1.8721 0.17578q-1.1953 0-2.1533-0.36914-0.94922-0.36914-1.6172-1.0986t-1.0283-1.8106q-0.35156-1.081-0.35156-2.5049 0-1.4326 0.36914-2.5664 0.37793-1.1338 1.0898-1.916 0.72071-0.79102 1.7578-1.2041 1.0459-0.41308 2.3818-0.41308 0.79102 0 1.5381 0.14062 0.75586 0.13184 1.5029 0.36036v2.1357q-0.65039-0.30762-1.4414-0.50098-0.78223-0.20215-1.582-0.20215-0.80859 0-1.4326 0.28125-0.61523 0.28125-1.0371 0.79981-0.41308 0.51855-0.63281 1.2744-0.21094 0.75586-0.21094 1.7051 0 0.91406 0.167 1.6523 0.16699 0.7295 0.53613 1.248 0.37793 0.50977 0.9668 0.78223 0.58886 0.27246 1.4326 0.27246 0.20215 0 0.35157-9e-3 0.14941-0.0176 0.28125-0.0439 0.13183-0.0264 0.24609-0.0615 0.12305-0.0352 0.25488-0.0791v-2.9356zm-173.85-508.32q1.4844 0 2.6953 0.37109 1.2109 0.36133 2.0703 1.1426 0.84961 0.77148 1.3184 1.9824 0.45898 1.2109 0.45898 2.9004v3.2422h-12.764v-3.7793q0-1.4648 0.37109-2.5586 0.36133-1.1035 1.123-1.8359t1.9336-1.0938q1.1719-0.37109 2.793-0.37109zm0.15625 2.5781q-1.0352 0-1.8457 0.16602-0.81055 0.16602-1.3672 0.56641-0.5664 0.39062-0.85937 1.0547-0.29297 0.66406-0.29297 1.6504v1.2207h8.7402v-1.0547q0-1.7676-1.0547-2.6855-1.0547-0.91797-3.3203-0.91797zm6.3867 12.67-7.6172 3.418-1.6406 0.70313h9.2578v2.1875h-12.764v-2.9492l7.666-3.4863 1.4942-0.61523h-9.1602v-2.1875h12.764zm-5.4004 13.666h-1.9824v-4.541h6.8066q0.41016 0.87891 0.60547 1.8359t0.19531 2.0801q0 1.3281-0.41016 2.3926-0.41015 1.0547-1.2207 1.7969-0.81055 0.74219-2.0117 1.1426-1.2012 0.39063-2.7832 0.39063-1.5918 0-2.8516-0.41016-1.2598-0.41992-2.1289-1.2109-0.87891-0.80078-1.3379-1.9531-0.45898-1.1621-0.45898-2.6465 0-0.8789 0.15625-1.709 0.14648-0.83985 0.40039-1.6699h2.373q-0.34179 0.72265-0.55664 1.6016-0.22461 0.86914-0.22461 1.7578 0 0.89844 0.3125 1.5918 0.3125 0.68359 0.88867 1.1523 0.57618 0.45899 1.416 0.70313 0.83984 0.23437 1.8945 0.23437 1.0156 0 1.8359-0.18554 0.81055-0.18555 1.3867-0.59571 0.5664-0.41992 0.86914-1.0742 0.30273-0.65429 0.30273-1.5918 0-0.22461-0.01-0.39063-0.0195-0.16601-0.0488-0.3125-0.0293-0.14648-0.0684-0.27344-0.0391-0.13671-0.0879-0.2832h-3.2617z" style="fill:#0b616e;stroke-width:3;text-orientation:sideways"/>
  <path d="m821.79 223.73h20.67v14.965h-20.67zm-362.55-66.863h23.11v16.732h-23.11zm0.0939 93.367h23.039v16.681h-23.039zm0-27.383h23.039v16.681h-23.039z" style="fill:#ebe9d5;stroke-width:3"/>
  <path d="m212.39 421.86h39.335v71.191h-39.335zm15.764-87.796h15.778v33.29h-15.778zm161.97 133.07h15.778v33.29h-15.778zm-41.929-59.164h33.283v33.463h-33.283zm-1.0485-183.5h58.406v58.723h-58.406z" style="fill:#53555f;stroke-width:3"/>
  <path d="m251.73 488.5v-7.3224h15.966v7.3224zm0-27.383v-7.3224h15.966v7.3224zm0-26.323v-7.3224h15.966v7.3224zm-62.841 40.684v-36.045h23.505v36.045zm55.048-133.8v-4.1161h8.4272v4.1161zm0 22.426v-4.1161h8.4272v4.1161zm-24.206-11.765v-4.1161h8.4272v4.1161zm186.17 122.4v-4.1161h8.4272v4.1161zm0 22.426v-4.1161h8.4272v4.1161zm-24.206 0v-4.1161h8.4272v4.1161zm0-11.765v-4.1161h8.4272v4.1161zm0-10.662v-4.1161h8.4272v4.1161zm-0.21896-37.586v-4.1161h7.4468v4.1161zm0-7.5823v-4.1161h7.4468v4.1161zm0-7.5823v-4.1161h7.4468v4.1161zm0-7.5823v-4.1161h7.4468v4.1161zm-40.73 22.79v-4.1161h7.4468v4.1161zm0-7.669v-4.1161h7.4468v4.1161zm0-7.669v-4.1161h7.4468v4.1161zm0-7.669v-4.1161h7.4468v4.1161zm2.6481-179.8v-2.0364h3.8128v2.0364zm0 5.6326v-2.0364h3.8128v2.0364zm0 5.6326v-2.0364h3.8128v2.0364zm0 5.6326v-2.0364h3.8128v2.0364zm0 6.3258v-2.0364h3.8128v2.0364zm0 6.3258v-2.0364h3.8128v2.0364zm0 5.6326v-2.0364h3.8128v2.0364zm0 6.587v-2.0364h3.8128v2.0364zm12.936 10.845h-2.0364v-3.8128h2.0364zm5.913 0h-2.0364v-3.8128h2.0364zm5.913 0h-2.0364v-3.8128h2.0364zm5.913 0h-2.0364v-3.8128h2.0364zm5.913 0h-2.0364v-3.8128h2.0364zm5.913 0h-2.0364v-3.8128h2.0364zm5.913 0h-2.0364v-3.8128h2.0364zm6.1274 0h-2.0364v-3.8128h2.0364zm11.427-13.346v2.0364h-3.8128v-2.0364zm0-5.913v2.0364h-3.8128v-2.0364zm0-5.913v2.0364h-3.8128v-2.0364zm0-5.913v2.0364h-3.8128v-2.0364zm0-5.913v2.0364h-3.8128v-2.0364zm0-5.6679v2.0364h-3.8128v-2.0364zm0-6.1887v2.0364h-3.8128v-2.0364zm0-5.6985v2.0364h-3.8128v-2.0364zm-13.44-11.795h2.0364v3.8128h-2.0364zm-6.1438 0h2.0364v3.8128h-2.0364zm-6.1438 0h2.0364v3.8128h-2.0364zm-5.5936 0h2.0364v3.8128h-2.0364zm-5.5936 0h2.0364v3.8128h-2.0364zm-6.0226 0h2.0364v3.8128h-2.0364zm-6.0226 0h2.0364v3.8128h-2.0364zm-6.0226 0h2.0364v3.8128h-2.0364z" style="fill:#d7dadb;stroke-width:3"/>
  <path d="m323.04 329.86h83.577c11.912 0 21.501 10.603 21.501 23.773v4.8594c0 13.171-9.5895 23.773-21.501 23.773h-83.577c-11.912 0-21.501-10.603-21.501-23.773v-4.8594c0-13.171 9.5895-23.773 21.501-23.773z" style="fill:#fff6f1;stroke-width:3"/>
  <path d="m325.96 334.02h77.742c11.08 0 20 8.92 20 20v4.0881c0 11.08-8.92 20-20 20h-77.742c-11.08 0-20-8.92-20-20v-4.0881c0-11.08 8.92-20 20-20z" style="fill:#d0ccca;stroke-width:2;stroke:#745b54"/>
  <path d="m53.816 137.32h200.11c1.7318 0 3.126 1.3284 3.126 2.9786v138.59c0 1.6501-1.3942 2.9786-3.126 2.9786h-200.11c-1.7318 0-3.126-1.3284-3.126-2.9786v-138.59c0-1.6501 1.3942-2.9786 3.126-2.9786z" style="fill:#b3b3b3;stroke-width:2;stroke:#938882"/>
  <path d="m147.37 515.83h131.99v95.833h-131.99z" style="fill:#323135;stroke-width:2;stroke:#333333"/>
  <path d="m110.79 507.99h33.454c1.7318 0 3.126 1.3284 3.126 2.9786v105.56c0 1.6501-1.3942 2.9786-3.126 2.9786h-33.454c-1.7318 0-3.126-1.3284-3.126-2.9786v-105.56c0-1.6501 1.3942-2.9786 3.126-2.9786z" style="fill:#464648;stroke-width:2;stroke:#272727"/>
  <path d="m147.37 515.83h131.01v13.825h-131.01z" style="fill:#494949;stroke-width:2"/>
  <path d="m147.37 597.05h129.3v12.109h-129.3z" style="fill:#494949;stroke-width:2"/>
  <path d="m403 534.51v55.631c0 3.2135 2.6342 5.8561 5.8477 5.8561h65.876c3.2304 0 5.8646-2.6427 5.8646-5.8561v-55.631l-16.114-16.11h-45.373zm-83.333 0v55.631c0 3.2135 2.6342 5.8561 5.8477 5.8561h65.876c3.2304 0 5.8646-2.6427 5.8646-5.8561v-55.631l-16.114-16.11h-45.373z" style="fill:#333333;stroke-width:1.25"/>
  <path d="m479.41 557.2a37.623 37.623 0 0 1-37.623 37.623 37.623 37.623 0 0 1-37.623-37.623 37.623 37.623 0 0 1 37.623-37.623 37.623 37.623 0 0 1 37.623 37.623zm-83.333 0a37.623 37.623 0 0 1-37.623 37.623 37.623 37.623 0 0 1-37.623-37.623 37.623 37.623 0 0 1 37.623-37.623 37.623 37.623 0 0 1 37.623 37.623z" style="fill:#f9f9f9;stroke-width:2;stroke:#1d1a23"/>
  <path d="m471.67 575.13a34.503 34.503 0 0 1-29.88 17.251 34.503 34.503 0 0 1-29.88-17.251m-23.572 1e-5a34.503 34.503 0 0 1-29.88 17.251 34.503 34.503 0 0 1-29.88-17.251" style="fill:#7b7c80;stroke-width:2"/>
  <path d="m366.9 162.91a10.225 10.225 0 0 1-10.225 10.225 10.225 10.225 0 0 1-10.225-10.225 10.225 10.225 0 0 1 10.225-10.225 10.225 10.225 0 0 1 10.225 10.225zm29.983 0a10.225 10.225 0 0 1-10.225 10.225 10.225 10.225 0 0 1-10.225-10.225 10.225 10.225 0 0 1 10.225-10.225 10.225 10.225 0 0 1 10.225 10.225zm0 29.463a10.225 10.225 0 0 1-10.225 10.225 10.225 10.225 0 0 1-10.225-10.225 10.225 10.225 0 0 1 10.225-10.225 10.225 10.225 0 0 1 10.225 10.225zm-29.983 0a10.225 10.225 0 0 1-10.225 10.225 10.225 10.225 0 0 1-10.225-10.225 10.225 10.225 0 0 1 10.225-10.225 10.225 10.225 0 0 1 10.225 10.225z" style="fill:#dcdddf;stroke-width:2"/>
  <path d="m341.25 149.74h60.139v58.752h-60.139z" style="fill:none;stroke-dasharray:3, 3;stroke-width:3;stroke:#ececec"/>
  <path d="m449.66 327.64h41.421v27.903h-41.421z" style="fill:none;stroke-dasharray:3, 3;stroke-width:3;stroke:#ececec"/>
  <path d="m465.51 337.61h10.745v6.0659h-10.745zm7.9723-5.026h12.652v18.198h-12.652zm-17.504-0.86654h12.652v18.198h-12.652z" style="fill:#f1ebf1;stroke-width:3"/>
  <path d="m178.14 41.282h75v74.51h-75z" style="fill:#b3b3b3;stroke-width:3"/>
  <path d="m235 78.537a19.363 19.363 0 0 1-19.363 19.363 19.363 19.363 0 0 1-19.363-19.363 19.363 19.363 0 0 1 19.363-19.363 19.363 19.363 0 0 1 19.363 19.363z" style="fill:#d9dad6;stroke:#747268"/>
  <path d="m253.14 100.34h13.406v10.606h-13.406zm0-52.166h13.406v10.606h-13.406zm-88.406 52.166h13.406v10.606h-13.406zm0-27.103h13.406v10.606h-13.406zm0-27.103h13.406v10.606h-13.406z" style="fill:#d7dadb"/>
  <path d="m829.63 229.73h4.9755v2.9542h-4.9755zm-361.62-66.153h5.563v3.303h-5.563zm0.0669 93.346h5.5459v3.2929h-5.5459zm0-27.383h5.5459v3.2929h-5.5459z" style="fill:#dabb93;stroke-width:3"/>
  <path d="m165.27 313.58h42.981v28.09h-42.981z" style="fill:#f9f5eb;stroke:#2d2e30"/>
  <path d="m165.27 359.98h42.981v28.09h-42.981z" style="fill:#f9f5eb;stroke:#2d2e30"/>
  <path d="m168.41 322.99h36.705v54.575h-36.705z" style="fill:#ffeecb;stroke:#66564e"/>
  <path d="m168.13 337h36.983v26.543h-36.983z" style="fill:#625c55;stroke:#66564e"/>
  <path d="m474.4 131.92h11.765v14.174h-11.765z" style="fill:#8c948f"/>
  <path d="m454.29 131.92h11.765v14.174h-11.765z" style="fill:#8c948f"/>
  <path d="m281.06 260.92h17.938v9.0988h-17.938zm114.2 48.14h17.938v9.0988h-17.938zm-75.46 0h17.938v9.0988h-17.938zm273.57 253.85h17.938v9.0988h-17.938zm-372.07-439.04h17.938v9.0988h-17.938zm60.9 69.238h17.938v9.0988h-17.938zm79.575 280.59v16.937h-9.0753v-16.937zm84.559 0v16.937h-9.0753v-16.937zm209.72 63.171h17.938v9.0988h-17.938zm-194.8-402.41h17.938v9.0988h-17.938zm-185.9 172.06h17.938v9.0988h-17.938zm396.9 83.882h17.938v9.0988h-17.938zm-209.85-83.882h17.938v9.0988h-17.938zm-180.21-142.79h17.938v9.0988h-17.938zm180.21 123.18h17.938v9.0988h-17.938z" style="fill:#eef0e5"/>
  <path d="m660 536.87h10.052v9.0988h-10.052zm-194.8-402.41h10.052v9.0988h-10.052zm-185.9 172.06h10.052v9.0988h-10.052zm396.9 83.882h10.052v9.0988h-10.052zm-209.85-83.882h10.052v9.0988h-10.052zm-182.46-141.83h14.558v7.1924h-14.558zm182.46 122.23h10.052v9.0988h-10.052z" style="fill:#b9a086"/>
  <path d="m446.33 477.43v9.4911h-9.0754v-9.4911z" style="fill:#b9a086"/>
  <path d="m361.77 477.43v9.4911h-9.0754v-9.4911z" style="fill:#b9a086"/>
  <path d="m286.48 194.06h9.3588v7.1924h-9.3588z" style="fill:#51555b;stroke-width:.99999"/>
  <path d="m224.25 123.87h12.025v9.0988h-12.025z" style="fill:#b1b0bd;stroke-width:.99999"/>
  <path d="m596.33 562.91h12.025v9.0988h-12.025z" style="fill:#b1b0bd;stroke-width:.99999"/>
  <path d="m322.76 309.06h12.025v9.0988h-12.025z" style="fill:#b1b0bd;stroke-width:.99999"/>
  <path d="m287.15 131.7v-34.505h16.376v34.505z" style="fill:#51555b"/>
  <path d="m287.15 124.92v-4.7751h16.376v4.7751z" style="fill:#d7dff0;stroke-width:.99999"/>
  <path d="m287.15 104.19v-4.7751h16.376v4.7751z" style="fill:#d7dff0;stroke-width:.99999"/>
  <path d="m835.66 348.94v-34.505h16.376v34.505z" style="fill:#51555b"/>
  <path d="m835.66 342.16v-4.7751h16.376v4.7751z" style="fill:#d7dff0;stroke-width:.99999"/>
  <path d="m835.66 321.43v-4.7751h16.376v4.7751z" style="fill:#d7dff0;stroke-width:.99999"/>
  <path d="m398.22 309.06h12.025v9.0988h-12.025z" style="fill:#b1b0bd;stroke-width:.99999"/>
  <path d="m285 260.92h10.052v9.0988h-10.052z" style="fill:#3f3841"/>
  <path d="m368.73 617.77h51.185v26.319h-51.185z" style="fill:#3f3841"/>
  <path d="m283.19 208.3h18.024v6.8711h-18.024z" style="fill:#f1f8ee;stroke-width:3"/>
  <path d="m283.19 218.87h18.024v6.8711h-18.024z" style="fill:#f1f8ee;stroke-width:3"/>
  <path d="m283.19 229.44h18.024v6.8711h-18.024z" style="fill:#f1f8ee;stroke-width:3"/>
  <path d="m283.19 240.01h18.024v6.8711h-18.024z" style="fill:#f1f8ee;stroke-width:3"/>
  <path d="m822.32 245.45h18.024v6.8711h-18.024z" style="fill:#f1f8ee;stroke-width:3"/>
  <path d="m822.32 256.02h18.024v6.8711h-18.024z" style="fill:#f1f8ee;stroke-width:3"/>
  <path d="m822.32 266.6h18.024v6.8711h-18.024z" style="fill:#f1f8ee;stroke-width:3"/>
  <path d="m822.32 277.17h18.024v6.8711h-18.024z" style="fill:#f1f8ee;stroke-width:3"/>
  <path d="m461.78 178.3h18.024v6.8711h-18.024z" style="fill:#f1f8ee;stroke-width:3"/>
  <path d="m461.78 188.87h18.024v6.8711h-18.024z" style="fill:#f1f8ee;stroke-width:3"/>
  <path d="m461.78 199.44h18.024v6.8711h-18.024z" style="fill:#f1f8ee;stroke-width:3"/>
  <path d="m461.78 210.01h18.024v6.8711h-18.024z" style="fill:#f1f8ee;stroke-width:3"/>
  <path d="m461.7 361.53h18.024v6.8711h-18.024z" style="fill:#f1f8ee;stroke-width:3"/>
  <path d="m461.7 372.11h18.024v6.8711h-18.024z" style="fill:#f1f8ee;stroke-width:3"/>
  <path d="m461.7 382.68h18.024v6.8711h-18.024z" style="fill:#f1f8ee;stroke-width:3"/>
  <path d="m461.7 393.25h18.024v6.8711h-18.024z" style="fill:#f1f8ee;stroke-width:3"/>
  <path d="m466.21 362.53h9.0121v36.587h-9.0121zm0.0749-183.24h9.0121v36.587h-9.0121zm360.54 67.157h9.0121v36.587h-9.0121zm-539.12-37.153h9.0121v36.587h-9.0121z" style="fill:#4a4f57;stroke-width:3"/>
  <path d="m614.91 390.12h8.4922v10.572h-8.4922z" style="fill:#f5f9fc;stroke:#5a574d"/>
  <path d="m633.28 390.12h8.4922v10.572h-8.4922z" style="fill:#f5f9fc;stroke:#5a574d"/>
  <path d="m608.84 361.7h39.688v16.811h-39.688z" style="fill:#f5ebe1;stroke:#5a574d"/>
  <path d="m613.61 364.21h30.142c1.108 0 2 0.892 2 2v7.7851c0 1.108-0.892 2-2 2h-30.142c-1.108 0-2-0.892-2-2v-7.7851c0-1.108 0.892-2 2-2z" style="fill:#c2bac3;stroke:#5a574d"/>
  <path d="m339.01 64.608a18.596 17.97 0 0 1-18.596 17.97 18.596 17.97 0 0 1-18.596-17.97 18.596 17.97 0 0 1 18.596-17.97 18.596 17.97 0 0 1 18.596 17.97z" style="fill:none;stroke:#000000"/>
  <path d="m940.08 244.63a18.928 18.291 0 0 1-18.928 18.291 18.928 18.291 0 0 1-18.928-18.291 18.928 18.291 0 0 1 18.928-18.291 18.928 18.291 0 0 1 18.928 18.291z" style="fill:none;stroke:#000000"/>
  <path d="m938.13 575.04a17.163 17.163 0 0 1-17.163 17.163 17.163 17.163 0 0 1-17.163-17.163 17.163 17.163 0 0 1 17.163-17.163 17.163 17.163 0 0 1 17.163 17.163z" style="fill:none;stroke:#000000"/>
  <path d="m323.25 634.73a17.163 17.163 0 0 1-17.163 17.163 17.163 17.163 0 0 1-17.163-17.163 17.163 17.163 0 0 1 17.163-17.163 17.163 17.163 0 0 1 17.163 17.163z" style="fill:none;stroke:#000000"/>
  <path d="m312.67 139.72v-47.315h88.513v47.315z" style="fill:#141414;stroke-width:2"/>
  <path d="m373.62 109.01v30.706l5.9948 6.3794h15.582l5.9868-6.3794v-47.315l-5.9868-6.3794h-15.582l-5.9948 6.3794zm-30.475 0v30.706l5.9948 6.3794h15.582l5.9868-6.3794v-47.315l-5.9868-6.3794h-15.582l-5.9948 6.3794zm-30.475 0v30.706l5.9948 6.3794h15.582l5.9868-6.3794v-47.315l-5.9868-6.3794h-15.582l-5.9948 6.3794z" style="fill:#1a1a1a;stroke-width:1.25"/>
  <path d="m389.77 127.93 2e-5 4.7637-4.7557 1e-5 -2e-5 -4.7637zm-1e-5 -28.51 1e-5 4.7637-4.7557 1e-5 -1e-5 -4.7637zm-30.471 33.269-4.7637 1e-5 -2e-5 -4.7557 4.7637-1e-5zm-4e-3 -33.269 1e-5 4.7637-4.7557 1e-5 -1e-5 -4.7637zm-30.475 28.51 2e-5 4.7637-4.7557 1e-5 -2e-5 -4.7637zm2e-5 -28.51 1e-5 4.7637-4.7557 1e-5 -1e-5 -4.7637z" style="fill:#f5e6d1;stroke-width:1.25"/>
  <path d="m382.78 134.93 2.2472-2.2392v-4.7436l-2.2472-2.2432zm0-37.736v9.2259l2.2472-2.2392v-4.7436zm-30.475 28.51v9.2259l2.2472-2.2392v-4.7436zm2.2472-26.266-2.2472-2.2432v9.2259l2.2472-2.2392zm-30.475 28.51-2.2472-2.2432v9.2259l2.2472-2.2392zm0-23.766v-4.7436l-2.2472-2.2432v9.2259z" style="fill:#cdcdcc;stroke-width:1.25"/>
  <path d="m389.77 132.69v-4.7436l2.2432-2.2432v9.2259zm2.2432-26.27-2.2432-2.2392v-4.7436l2.2432-2.2432zm-30.475 28.51-2.2432-2.2392v-4.7436l2.2432-2.2432zm0-37.736v9.2259l-2.2432-2.2392v-4.7436zm-30.475 28.51v9.2259l-2.2432-2.2392v-4.7436zm-2.2432-26.266 2.2432-2.2432v9.2259l-2.2432-2.2392z" style="fill:#797672;stroke-width:1.25"/>
  <path d="m382.78 134.93 2.2472-2.2392h4.7436l2.2432 2.2392zm6.9908-6.9828h-4.7436l-2.2472-2.2432h9.234zm2.2432-21.527h-9.234l2.2472-2.2392h4.7436zm0-9.2259-2.2432 2.2432h-4.7436l-2.2472-2.2432zm-30.475 37.736h-9.234l2.2472-2.2392h4.7436zm0-9.2259-2.2432 2.2432h-4.7436l-2.2472-2.2432zm-2.2432-21.523 2.2432 2.2392h-9.234l2.2472-2.2392zm-6.9908-6.9868h9.234l-2.2432 2.2432h-4.7436zm-23.484 35.496 2.2432 2.2392h-9.234l2.2472-2.2392zm-6.9908-6.9868h9.234l-2.2432 2.2432h-4.7436zm2.2472-21.523h4.7436l2.2432 2.2392h-9.234zm0-4.7436-2.2472-2.2432h9.234l-2.2432 2.2432z" style="fill:#b5b2b0;stroke-width:1.25"/>
  <path d="m934.02 279.41q0 0.79687-0.26563 1.4766-0.26562 0.67188-0.78906 1.1641-0.52344 0.49219-1.3047 0.76563t-1.8125 0.27344h-0.97656v3.2812h-1.9375v-10.211h2.9922q0.99218 0 1.75 0.21875 0.76562 0.21094 1.2812 0.625 0.52343 0.41406 0.78906 1.0234 0.27344 0.60156 0.27344 1.3828zm-2.0156 0.13281q0-0.40625-0.13281-0.73437-0.125-0.33594-0.39063-0.57032-0.25781-0.23437-0.65625-0.35937-0.39843-0.125-0.94531-0.125h-1.0078v3.7422h1.0703q0.5 0 0.88281-0.13282 0.38282-0.14062 0.64063-0.39843 0.26562-0.25782 0.39844-0.61719 0.14062-0.35938 0.14062-0.80469zm-6.9531 3.7422q0 0.83594-0.3125 1.4531-0.30469 0.61719-0.85938 1.0234-0.55469 0.39844-1.3203 0.59375-0.76563 0.19531-1.6719 0.19531-0.80468 0-1.5547-0.0937t-1.4844-0.3125v-1.8984q0.35938 0.125 0.75 0.23437 0.39063 0.10938 0.78125 0.19531 0.39844 0.0781 0.78906 0.125 0.39063 0.0469 0.75782 0.0469 0.54687 0 0.92968-0.0937 0.38282-0.0937 0.625-0.25781 0.24219-0.16407 0.35157-0.39063 0.10937-0.22656 0.10937-0.5 0-0.375-0.21875-0.625-0.21094-0.25781-0.5625-0.45312-0.35156-0.19532-0.80469-0.35157-0.44531-0.15625-0.91406-0.33593-0.46094-0.17969-0.91406-0.40625-0.44531-0.22657-0.79688-0.5625-0.35156-0.33594-0.57031-0.79688-0.21094-0.46875-0.21094-1.125 0-0.60156 0.21875-1.1406 0.21875-0.53907 0.6875-0.9375 0.46875-0.40625 1.2031-0.64063 0.73437-0.24219 1.7734-0.24219 0.30468 0 0.63281 0.0312 0.33594 0.0234 0.65625 0.0703 0.32812 0.0391 0.625 0.10156 0.30469 0.0547 0.55469 0.11719v1.7578q-0.25-0.0937-0.54688-0.17188-0.29687-0.0781-0.61719-0.13281-0.3125-0.0625-0.63281-0.0937t-0.60937-0.0312q-0.50782 0-0.85938 0.0859-0.35156 0.0781-0.57812 0.22656-0.22657 0.14063-0.32813 0.35156-0.10156 0.21094-0.10156 0.46875 0 0.32032 0.21094 0.55469 0.21875 0.22656 0.57031 0.41406 0.35937 0.17969 0.80469 0.34375 0.45312 0.15625 0.92187 0.34375 0.47656 0.17969 0.92188 0.41407 0.45312 0.23437 0.80468 0.57031 0.35938 0.33594 0.57032 0.79687 0.21875 0.45313 0.21875 1.0781zm-8.9219 2.6875q-0.67969 0.27344-1.3203 0.40625-0.63281 0.13281-1.3203 0.13281-1.1016 0-1.9531-0.32031-0.84375-0.32813-1.4297-0.96875-0.57812-0.64063-0.88281-1.5859-0.29687-0.95312-0.29687-2.2109 0-1.2891 0.32812-2.2891 0.32813-1.0078 0.9375-1.6953 0.60938-0.69531 1.4766-1.0547 0.875-0.36719 1.9609-0.36719 0.35156 0 0.65625 0.0156 0.3125 0.0156 0.60938 0.0625 0.29687 0.0391 0.60156 0.10937 0.30469 0.0703 0.63281 0.17969v1.9062q-0.66406-0.3125-1.2656-0.44531-0.60157-0.13281-1.0938-0.13281-0.72657 0-1.2422 0.26562-0.51563 0.25781-0.85156 0.73438-0.32813 0.46875-0.48438 1.125-0.15625 0.64843-0.15625 1.4297 0 0.82813 0.15625 1.4844 0.16406 0.64844 0.5 1.1016 0.33594 0.45313 0.85938 0.69531 0.52343 0.23438 1.2422 0.23438 0.25782 0 0.55469-0.0469 0.30469-0.0547 0.60938-0.13281 0.3125-0.0859 0.60937-0.19531 0.30469-0.11719 0.5625-0.23438zm-15.469-8.2422v-1.5703h6.4531v1.5703h-2.25v7.0547h2.25v1.5859h-6.4531v-1.5859h2.25v-7.0547zm-77.908 104.96q-0.67969 0.27343-1.3203 0.40625-0.63281 0.13281-1.3203 0.13281-1.1016 0-1.9531-0.32031-0.84375-0.32813-1.4297-0.96875-0.57812-0.64063-0.88281-1.5859-0.29687-0.95313-0.29687-2.2109 0-1.2891 0.32812-2.2891 0.32813-1.0078 0.9375-1.6953 0.60938-0.69532 1.4766-1.0547 0.875-0.36719 1.9609-0.36719 0.35156 0 0.65625 0.0156 0.3125 0.0156 0.60938 0.0625 0.29687 0.0391 0.60156 0.10937 0.30469 0.0703 0.63281 0.17969v1.9062q-0.66406-0.3125-1.2656-0.44531-0.60157-0.13282-1.0938-0.13282-0.72657 0-1.2422 0.26563-0.51563 0.25781-0.85156 0.73437-0.32813 0.46875-0.48438 1.125-0.15625 0.64844-0.15625 1.4297 0 0.82813 0.15625 1.4844 0.16406 0.64843 0.5 1.1016 0.33594 0.45312 0.85938 0.69531 0.52343 0.23438 1.2422 0.23438 0.25782 0 0.55469-0.0469 0.30469-0.0547 0.60938-0.13281 0.3125-0.0859 0.60937-0.19531 0.30469-0.11719 0.5625-0.23438zm-8.7969 0q-0.67969 0.27343-1.3203 0.40625-0.63281 0.13281-1.3203 0.13281-1.1016 0-1.9531-0.32031-0.84375-0.32813-1.4297-0.96875-0.57813-0.64063-0.88281-1.5859-0.29688-0.95313-0.29688-2.2109 0-1.2891 0.32813-2.2891 0.32812-1.0078 0.9375-1.6953 0.60937-0.69532 1.4766-1.0547 0.875-0.36719 1.9609-0.36719 0.35156 0 0.65625 0.0156 0.3125 0.0156 0.60937 0.0625 0.29688 0.0391 0.60156 0.10937 0.30469 0.0703 0.63282 0.17969v1.9062q-0.66407-0.3125-1.2656-0.44531-0.60156-0.13282-1.0938-0.13282-0.72656 0-1.2422 0.26563-0.51562 0.25781-0.85156 0.73437-0.32812 0.46875-0.48437 1.125-0.15625 0.64844-0.15625 1.4297 0 0.82813 0.15625 1.4844 0.16406 0.64843 0.5 1.1016 0.33593 0.45312 0.85937 0.69531 0.52344 0.23438 1.2422 0.23438 0.25781 0 0.55469-0.0469 0.30468-0.0547 0.60937-0.13281 0.3125-0.0859 0.60938-0.19531 0.30468-0.11719 0.5625-0.23438zm-11.302-0.27559a1.6544 1.6544 0 0 1-1.6544 1.6544 1.6544 1.6544 0 0 1-1.6544-1.6544 1.6544 1.6544 0 0 1 1.6544-1.6544 1.6544 1.6544 0 0 1 1.6544 1.6544zm-7.1364-4.2065q0 1.3906-0.32812 2.3984-0.32031 1.0078-0.89063 1.6562-0.5625 0.64844-1.3281 0.96094-0.75781 0.3125-1.625 0.3125-2.0156 0-3.0312-1.3359-1.0156-1.3438-1.0156-3.8984 0-1.3906 0.32032-2.3984 0.32812-1.0078 0.89062-1.6562 0.57031-0.64843 1.3281-0.96093 0.76562-0.3125 1.6328-0.3125 2.0156 0 3.0312 1.3359 1.0156 1.3359 1.0156 3.8984zm-2.0312 0.0937q0-1.8125-0.48437-2.7031-0.48438-0.89063-1.5938-0.89063-0.55469 0-0.94531 0.23438-0.39063 0.22656-0.64844 0.67187-0.25 0.44531-0.36719 1.1016-0.11719 0.64844-0.11719 1.4922 0 1.8125 0.48438 2.7031 0.49219 0.89062 1.5938 0.89062 0.55469 0 0.94531-0.22656 0.39844-0.23438 0.64844-0.67969t0.36719-1.0938q0.11718-0.65625 0.11718-1.5zm-10.492 5.0547-2.7344-6.0938-0.5625-1.3125v7.4062h-1.75v-10.211h2.3594l2.7891 6.1328 0.49219 1.1953v-7.3281h1.75v10.211zm-14.406-8.6406v-1.5703h6.4531v1.5703h-2.25v7.0547h2.25v1.5859h-6.4531v-1.5859h2.25v-7.0547zm-2.8516 4.8828q0 0.97656-0.26562 1.7188-0.25781 0.73437-0.75 1.2266-0.48438 0.49219-1.1875 0.74219-0.70313 0.25-1.5781 0.25-0.98437 0-1.6875-0.25-0.70312-0.25-1.1406-0.71875t-0.63281-1.1406q-0.19532-0.67187-0.19532-1.5078v-6.7734h1.9219v6.6562q0 0.51563 0.0859 0.91406 0.0937 0.39844 0.3125 0.67969 0.22656 0.27344 0.5625 0.41406 0.33593 0.14063 0.84375 0.14063 0.47656 0 0.80468-0.11719 0.32813-0.125 0.54688-0.39062 0.21875-0.27344 0.32812-0.69532 0.10938-0.42187 0.10938-1.0234v-6.5781h1.9219zm-9.5312-1.4766q0 1.1875-0.29687 2.1562-0.28906 0.96875-0.91406 1.6562-0.61719 0.67969-1.5859 1.0547-0.96875 0.36719-2.3203 0.36719h-2.5938v-10.211h3.0234q1.1719 0 2.0469 0.29688 0.88281 0.28906 1.4688 0.89843 0.58594 0.60938 0.875 1.5469 0.29687 0.9375 0.29687 2.2344zm-2.0625 0.125q0-0.82812-0.13281-1.4766t-0.45312-1.0938q-0.3125-0.45312-0.84375-0.6875-0.53125-0.23437-1.3203-0.23437h-0.97656v6.9922h0.84375q1.4141 0 2.1484-0.84375 0.73437-0.84375 0.73437-2.6562zm-9.9609 5.1094-1.4375-3.2812q-0.20313-0.46875-0.57032-0.70313-0.35937-0.24218-0.85156-0.24218h-0.36719v4.2266h-1.9219v-10.211h2.9766q0.84375 0 1.5312 0.14844 0.6875 0.14062 1.1719 0.47656 0.48437 0.33594 0.74218 0.875 0.26563 0.53906 0.26563 1.3203 0 0.5625-0.16406 1-0.16407 0.4375-0.46094 0.75782-0.29688 0.3125-0.71094 0.50781-0.40625 0.19531-0.89062 0.27344 0.375 0.0781 0.6875 0.42968 0.3125 0.34375 0.625 1l1.6328 3.4219zm-0.47657-7.2031q0-0.75-0.47656-1.0781-0.47656-0.32813-1.4297-0.32813h-0.84375v2.8828h0.78125q0.44532 0 0.80469-0.0937 0.36719-0.0937 0.625-0.28125 0.25781-0.1875 0.39844-0.46094 0.14062-0.28125 0.14062-0.64063zm-8.8359 7.2031-0.5625-2.0156h-3.5625l-0.57813 2.0156h-1.9062l3.0234-10.211h2.6875l3.0234 10.211zm-2.3203-8.3359-1.3438 4.75h2.6719zm-69.726-46.787q0 1.5156-0.5625 2.7344-0.5625 1.2031-1.7344 2.0625-1.1562 0.84375-2.9219 1.2969-1.7656 0.45312-4.1562 0.45312-0.53125 0-1.125-0.0312-0.57812-0.0156-1.1562-0.0625-0.57812-0.0312-1.125-0.0937-0.54687-0.0469-0.98437-0.125v-3.3125q0.98437 0.1875 2.2031 0.3125 1.2344 0.10938 2.5625 0.10938 1.2969 0 2.2344-0.21875t1.5469-0.625q0.60938-0.42188 0.89063-1.0312 0.29687-0.60938 0.29687-1.375 0-0.67188-0.29687-1.2188-0.29688-0.54688-0.90625-0.92188-0.60938-0.39062-1.5625-0.59375-0.9375-0.21875-2.2344-0.21875h-2.2656v-2.9062h2.0781q1.2188 0 2.0156-0.23437 0.8125-0.25 1.2812-0.65625 0.48437-0.40625 0.6875-0.95313 0.20312-0.5625 0.20312-1.1719 0-1.25-0.8125-1.8906-0.8125-0.65625-2.5156-0.65625-1.2188 0-2.4062 0.23438-1.1875 0.23437-2.4531 0.625v-3.2031q0.70313-0.23437 1.3438-0.39062 0.64063-0.15625 1.2812-0.26563 0.64063-0.10937 1.2969-0.15625 0.65625-0.0469 1.3594-0.0469 1.6875 0 2.9531 0.35937 1.2812 0.35938 2.1406 1.0312 0.875 0.65625 1.3125 1.6094 0.4375 0.95312 0.4375 2.125 0 1.8594-0.85937 3.0156-0.84375 1.1406-2.375 1.75 0.98437 0.15625 1.7812 0.54688 0.79687 0.375 1.3594 0.98437 0.57813 0.59375 0.875 1.375 0.3125 0.78125 0.3125 1.7344zm-26.219 6.2344-2.875-6.5625q-0.40625-0.9375-1.1406-1.4062-0.71875-0.48437-1.7031-0.48437h-0.73437v8.4531h-3.8438v-20.422h5.9531q1.6875 0 3.0625 0.29687 1.375 0.28125 2.3438 0.95313 0.96875 0.67187 1.4844 1.75 0.53125 1.0781 0.53125 2.6406 0 1.125-0.32813 2-0.32812 0.875-0.92187 1.5156-0.59375 0.625-1.4219 1.0156-0.8125 0.39063-1.7812 0.54688 0.75 0.15625 1.375 0.85937 0.625 0.6875 1.25 2l3.2656 6.8438zm-0.95312-14.406q0-1.5-0.95313-2.1562-0.95312-0.65625-2.8594-0.65625h-1.6875v5.7656h1.5625q0.89062 0 1.6094-0.1875 0.73438-0.1875 1.25-0.5625 0.51563-0.375 0.79688-0.92188 0.28125-0.5625 0.28125-1.2812zm33.188-51.408q0 3.1289-0.73828 5.3965-0.7207 2.2676-2.0039 3.7266-1.2656 1.459-2.9883 2.1621-1.7051 0.70312-3.6562 0.70312-4.5352 0-6.8203-3.0059-2.2852-3.0234-2.2852-8.7715 0-3.1289 0.72071-5.3965 0.73828-2.2676 2.0039-3.7266 1.2832-1.459 2.9883-2.1621 1.7227-0.70312 3.6738-0.70312 4.5352 0 6.8203 3.0058 2.2852 3.0059 2.2852 8.7715zm-4.5703 0.21094q0-4.0781-1.0898-6.082-1.0898-2.0039-3.5859-2.0039-1.248 0-2.127 0.52734-0.8789 0.50977-1.459 1.5117-0.5625 1.002-0.82617 2.4785-0.26368 1.459-0.26368 3.3574 0 4.0781 1.0898 6.082 1.1074 2.0039 3.5859 2.0039 1.248 0 2.127-0.50977 0.89648-0.52734 1.459-1.5293 0.5625-1.002 0.82618-2.4609 0.26367-1.4766 0.26367-3.375zm-21.357 11.373-6.1524-13.711-1.2656-2.9531v16.664h-3.9375v-22.975h5.3086l6.2754 13.799 1.1074 2.6895v-16.488h3.9375v22.975zm-30.164-19.441v-3.5332h14.52v3.5332h-5.0625v15.873h5.0625v3.5684h-14.52v-3.5684h5.0625v-15.873zm-4.166 10.986q0 2.1973-0.59766 3.8672-0.58008 1.6524-1.6875 2.7598-1.0898 1.1074-2.6719 1.6699-1.582 0.5625-3.5508 0.5625-2.2148 0-3.7969-0.5625t-2.5664-1.6172q-0.98437-1.0547-1.4238-2.5664-0.43946-1.5117-0.43946-3.3926v-15.24h4.3242v14.977q0 1.1602 0.19336 2.0566 0.21094 0.89648 0.70313 1.5293 0.50976 0.61524 1.2656 0.93164 0.75586 0.31641 1.8984 0.31641 1.0723 0 1.8105-0.26367 0.73829-0.28125 1.2305-0.87891 0.49219-0.61523 0.73828-1.5644 0.2461-0.94922 0.2461-2.3027v-14.801h4.3242zm-19.195-3.3223q0 2.6719-0.66796 4.8516-0.65039 2.1797-2.0566 3.7266-1.3887 1.5293-3.5684 2.373-2.1797 0.82617-5.2207 0.82617h-5.8359v-22.975h6.8027q2.6367 0 4.6055 0.66797 1.9863 0.65039 3.3047 2.0215 1.3184 1.3711 1.9688 3.4805 0.66796 2.1094 0.66796 5.0273zm-4.6406 0.28125q0-1.8633-0.29883-3.3223-0.29883-1.459-1.0195-2.4609-0.70312-1.0195-1.8984-1.5469-1.1953-0.52734-2.9707-0.52734h-2.1973v15.732h1.8984q3.1816 0 4.834-1.8984 1.6523-1.8984 1.6523-5.9766zm-20.162 11.496-3.2344-7.3828q-0.45704-1.0547-1.2832-1.582-0.80859-0.54492-1.916-0.54492h-0.82618v9.5098h-4.3242v-22.975h6.6973q1.8984 0 3.4453 0.33399 1.5469 0.3164 2.6367 1.0723 1.0898 0.75586 1.6699 1.9688 0.59766 1.2129 0.59766 2.9707 0 1.2656-0.36914 2.25-0.36914 0.98437-1.0371 1.7051-0.66797 0.70312-1.5996 1.1426-0.91406 0.43946-2.0039 0.61524 0.84375 0.17578 1.5469 0.96679 0.70313 0.77344 1.4062 2.25l3.6738 7.6992zm-1.0723-16.207q0-1.6875-1.0723-2.4258-1.0723-0.73828-3.2168-0.73828h-1.8984v6.4863h1.7578q1.002 0 1.8105-0.21094 0.82618-0.21094 1.4062-0.63281 0.58008-0.42188 0.89649-1.0371 0.3164-0.63281 0.3164-1.4414zm-17.631 16.207-1.2656-4.5352h-8.0156l-1.3008 4.5352h-4.2891l6.8027-22.975h6.0469l6.8027 22.975zm-5.2207-18.756-3.0234 10.688h6.0117zm137.48-76.62-1.4375-3.2812q-0.20312-0.46875-0.57031-0.70313-0.35937-0.24218-0.85156-0.24218h-0.36719v4.2266h-1.9219v-10.211h2.9766q0.84375 0 1.5312 0.14844 0.6875 0.14062 1.1719 0.47656 0.48438 0.33594 0.74219 0.875 0.26563 0.53906 0.26563 1.3203 0 0.5625-0.16407 1-0.16406 0.4375-0.46093 0.75782-0.29688 0.3125-0.71094 0.50781-0.40625 0.19531-0.89063 0.27344 0.375 0.0781 0.6875 0.42968 0.3125 0.34375 0.625 1l1.6328 3.4219zm-0.47656-7.2031q0-0.75-0.47656-1.0781-0.47656-0.32813-1.4297-0.32813h-0.84375v2.8828h0.78125q0.44531 0 0.80469-0.0937 0.36719-0.0937 0.625-0.28125 0.25781-0.1875 0.39844-0.46094 0.14062-0.28125 0.14062-0.64063zm-29.922 30.728c0-0.33998-0.27547-0.61895-0.62767-0.61895h-6.63c-0.33476 0-0.62767-0.27897-0.62767-0.61895v-6.6298c0-0.33998-0.27548-0.61895-0.61896-0.61895h-6.8127c-0.34173 0-0.62348 0.27897-0.62348 0.61895v6.6298c0 0.33998-0.27548 0.61895-0.62314 0.61895h-6.63c-0.34173 0-0.63185 0.27897-0.63185 0.61895v6.8041c0 0.33999 0.27547 0.61895 0.63185 0.61895h6.63c0.34173 0 0.62314 0.27897 0.62314 0.61896v6.6254c0 0.33999 0.27547 0.61895 0.62348 0.61895h6.8127c0.33127 0 0.61896-0.27896 0.61896-0.61895v-6.6254c0-0.33999 0.27547-0.61896 0.62767-0.61896h6.63c0.34174 0 0.62767-0.27896 0.62767-0.61895zm-74.397 6.7954c0 0.33999-0.27548 0.61895-0.62349 0.61895h-22.526c-0.34174 0-0.63186-0.27896-0.63186-0.61895v-6.8041c0-0.33999 0.27548-0.61896 0.63186-0.61896h22.526c0.34174 0 0.62349 0.27897 0.62349 0.61896zm63.643-38.372c-10.305-0.0209-19.728 4.4717-28.414 12.25-3.4131 3.0512-6.2471 6.747-9.9434 10.801-1.3031-1.6476-2.292-2.8896-3.2597-4.1406-8.9398-11.394-20.4-18.962-35.055-18.836-22.134 0.18725-38.065 17.335-36.754 38.223 1.0112 16.481 16.107 31.636 32.605 32.695 16.825 1.0766 29.351-6.1328 39.433-18.83 0.98056-1.2248 2.0012-2.388 3.3047-3.918 1.8175 2.2274 3.1903 3.9761 4.6329 5.6543 9.4283 10.928 20.734 17.656 35.785 17.146 16.241-0.55357 31.115-12.335 34.28-27.805 3.4306-16.764-5.1009-33.197-20.871-39.84-5.4695-2.3041-10.712-3.3904-15.744-3.4004zm0.96277 11.568h0.0349c9.768 0.68869 17.954 4.887 22.553 14.402 4.3327 8.9966 2.8427 17.631-3.713 24.932-7.3099 8.1379-16.594 10.888-27.199 7.5625-10.941-3.4348-17.81-11.584-23.311-21.1-0.49272-0.84125-0.47528-2.4377 0-3.3008 6.0891-10.958 14.192-19.539 27.115-22.15 1.3122-0.26118 2.6714-0.21481 4.537-0.34557zm-75.508 0.10147h2e-3c7.5715 0.3705 15.625 4.5117 21.527 11.904 10.613 13.29 11.013 10.974-0.136 24.369-7.2618 8.7482-16.898 13.762-28.955 11.146-12.24-2.6545-21.131-13.849-20.037-25.047 1.2292-12.623 12.361-22.397 27.6-22.373zm-116.63 136.51v2.5469l-7.0391 4.6172q-0.61719 0.40625-0.92969 0.5625v0.0312q0.59375-0.0625 1.8125-0.0625h6.1562v2.3828h-11.203v-2.7188l6.8203-4.4453q0.46094-0.30469 0.91406-0.5625v-0.0312q-0.39062 0.0625-1.5391 0.0625h-6.1953v-2.3828zm0 11.875v6.7188h-11.203v-6.4609h2.0547v3.9375h2.4922v-3.6641h2.0469v3.6641h2.5625v-4.1953zm-9.1484 18.412v3.1953h9.1484v2.5312h-9.1484v3.1797h-2.0547v-8.9062zm8.7188 17.352h-2.5q0.57032-0.67969 0.85938-1.4766 0.28125-0.79688 0.28125-1.6094 0-0.47656-0.0859-0.82812-0.0859-0.35938-0.23437-0.59375-0.15625-0.24219-0.35938-0.35938-0.21094-0.11719-0.45312-0.11719-0.32813 0-0.58594 0.1875t-0.47656 0.51563q-0.21875 0.32031-0.42188 0.76562-0.20312 0.44532-0.41406 0.96094-0.54688 1.3125-1.3359 1.9609-0.78906 0.64062-1.9062 0.64062-0.875 0-1.5-0.35156-0.63281-0.35156-1.0391-0.95312-0.40625-0.60938-0.59375-1.4062-0.19531-0.79688-0.19531-1.6875 0-0.875 0.10937-1.5469 0.10156-0.67969 0.32031-1.25h2.3359q-0.19531 0.28125-0.34375 0.61719-0.14844 0.32812-0.24219 0.67969-0.10156 0.35156-0.14843 0.70312-0.0469 0.34375-0.0469 0.65625 0 0.42969 0.0859 0.78125 0.0781 0.35156 0.22656 0.59375 0.14844 0.24219 0.35938 0.375 0.20312 0.13281 0.46093 0.13281 0.28125 0 0.50782-0.14843 0.21875-0.14844 0.42187-0.42188 0.19531-0.27344 0.39063-0.66406 0.1875-0.39063 0.39062-0.88281 0.28125-0.67188 0.60156-1.2031 0.3125-0.53906 0.71094-0.92187 0.39844-0.38282 0.91406-0.58594 0.50782-0.20313 1.1875-0.20313 0.9375 0 1.5781 0.35938 0.63281 0.35156 1.0312 0.96094 0.39062 0.60937 0.5625 1.4219 0.17187 0.80469 0.17187 1.7031 0 0.92187-0.15625 1.7578-0.15625 0.82812-0.46875 1.4375zm0.42969 0.53125v2.8984l-2.8828 1.7422q-0.32813 0.19532-0.58594 0.375-0.25781 0.17969-0.4375 0.36719-0.1875 0.17969-0.28125 0.38281-0.10156 0.19532-0.10156 0.42969v0.67969h4.2891v2.5234h-11.203v-4q0-4.0781 3.0469-4.0781 0.58594 0 1.0859 0.17969 0.49219 0.17969 0.89062 0.50781 0.39844 0.32813 0.6875 0.79688 0.28907 0.46093 0.45313 1.0312h0.0312q0.0781-0.25 0.25781-0.48438 0.17188-0.23437 0.40625-0.45312 0.23438-0.21875 0.50781-0.41407 0.26563-0.20312 0.52344-0.36718zm-9.3125 6.875h3.1172v-1.0938q0-0.8125-0.46875-1.3047-0.47656-0.5-1.1797-0.5-1.4688 0-1.4688 1.7578zm3.5635-114.57-2.2148-4.2275-2.1797 4.2275h-2.6104l3.3135-5.8887-3.0938-5.5986h2.54l2.083 3.999 2.0127-3.999h2.54l-3.0762 5.5986 3.4365 5.8887zm-11.046 0-1.6172-3.6914q-0.22851-0.52734-0.6416-0.79102-0.4043-0.27246-0.95801-0.27246h-0.41308v4.7549h-2.1621v-11.487h3.3486q0.94922 0 1.7227 0.16699 0.77343 0.15821 1.3184 0.53614 0.54492 0.37793 0.83496 0.98437 0.29883 0.60645 0.29883 1.4854 0 0.63282-0.18457 1.125-0.18457 0.49219-0.51856 0.85254-0.33398 0.35157-0.7998 0.57129-0.45704 0.21973-1.002 0.30762 0.42188 0.0879 0.77344 0.4834 0.35156 0.38672 0.70313 1.125l1.8369 3.8496zm-0.53613-8.1035q0-0.84375-0.53614-1.2129-0.53613-0.36914-1.6084-0.36914h-0.94922v3.2432h0.8789q0.50098 0 0.90528-0.10546 0.41308-0.10547 0.70312-0.31641t0.44824-0.51856q0.15821-0.3164 0.15821-0.7207zm11.582-18.76-2.2148-4.2275-2.1797 4.2275h-2.6104l3.3135-5.8887-3.0938-5.5986h2.54l2.083 3.999 2.0127-3.999h2.54l-3.0762 5.5986 3.4365 5.8887zm-11.916-9.6856v9.6856h-2.2148v-9.6856h-3.1465v-1.8018h8.5078v1.8018zm-91.298-37.47h-1.4062l-2.4141-2.4141q-0.67969-0.67969-1.1719-1.0859-0.49218-0.41406-0.875-0.63281-0.39062-0.22657-0.71875-0.29688-0.32812-0.0703-0.67968-0.0703-0.28907 0-0.54688 0.0937-0.26562 0.0937-0.45312 0.27344-0.19532 0.17968-0.30469 0.45312-0.11719 0.27344-0.11719 0.625 0 0.60156 0.26563 1.1172 0.25781 0.51562 0.69531 0.97656l-1.2969 1.0078q-0.61718-0.66406-0.98437-1.4922-0.375-0.83594-0.375-1.8047 0-0.75 0.19531-1.3594 0.1875-0.60937 0.5625-1.0391 0.375-0.4375 0.9375-0.67187 0.5625-0.24219 1.2969-0.24219 0.60937 0 1.1406 0.16406 0.52344 0.16406 1.0234 0.47656t1 0.77344q0.5 0.45313 1.0547 1.0391l1.4141 1.4844v-4.3047h1.7578zm-6.9609 1.6641q0.79688 0 1.4766 0.26563 0.67187 0.26562 1.1641 0.78906t0.76562 1.3047q0.27344 0.78125 0.27344 1.8125v0.97656h3.2812v1.9375h-10.211v-2.9922q0-0.99219 0.21875-1.75 0.21094-0.76562 0.625-1.2812 0.41407-0.52344 1.0234-0.78906 0.60156-0.27344 1.3828-0.27344zm0.13282 2.0156q-0.40625 0-0.73438 0.13281-0.33594 0.125-0.57031 0.39062-0.23438 0.25782-0.35938 0.65625-0.125 0.39844-0.125 0.94532v1.0078h3.7422v-1.0703q0-0.5-0.13281-0.88282-0.14063-0.38281-0.39844-0.64062-0.25781-0.26563-0.61719-0.39844-0.35937-0.14062-0.80468-0.14062zm3.7734 7.8516q0.71875 0 1.3125 0.22656t1.0156 0.66406q0.42187 0.4375 0.65625 1.0859 0.22656 0.64844 0.22656 1.5078 0 0.63282-0.14844 1.2188-0.14843 0.58594-0.375 1.0234h-1.8594q0.16406-0.19531 0.30469-0.45312 0.14062-0.26563 0.25-0.5625 0.10156-0.29688 0.16406-0.60938 0.0547-0.3125 0.0547-0.61719 0-0.25781-0.0937-0.53125-0.0937-0.28125-0.3125-0.5-0.21875-0.21875-0.57032-0.35937-0.35937-0.14063-0.88281-0.14063h-5.3125v3.6953h-1.5859v-5.6484zm-186.72-140.18h8.6094v1.9688h-8.6094v2.7969h-1.6016v-7.5625h1.6016zm8.6094 12.742h-10.211v-6.1484h1.625v4.1953h2.5391v-4h1.5859v4h2.8359v-4.1953h1.625zm-3.0859 2.2656q0.83594 0 1.4531 0.3125 0.61719 0.30469 1.0234 0.85938 0.39844 0.55469 0.59375 1.3203t0.19531 1.6719q0 0.80469-0.0937 1.5547t-0.3125 1.4844h-1.8984q0.125-0.35938 0.23437-0.75 0.10938-0.39062 0.19531-0.78125 0.0781-0.39844 0.125-0.78906t0.0469-0.75781q0-0.54688-0.0937-0.92969-0.0937-0.38281-0.25781-0.625-0.16407-0.24219-0.39063-0.35156t-0.5-0.10938q-0.375 0-0.625 0.21875-0.25781 0.21094-0.45312 0.5625-0.19532 0.35156-0.35157 0.80469-0.15625 0.44531-0.33593 0.91406-0.17969 0.46094-0.40625 0.91406-0.22657 0.44531-0.5625 0.79688-0.33594 0.35156-0.79688 0.57031-0.46875 0.21094-1.125 0.21094-0.60156 0-1.1406-0.21875-0.53907-0.21875-0.9375-0.6875-0.40625-0.46875-0.64063-1.2031-0.24219-0.73438-0.24219-1.7734 0-0.30469 0.0312-0.63281 0.0234-0.33594 0.0703-0.65625 0.0391-0.32812 0.10156-0.625 0.0547-0.30469 0.11719-0.55469h1.7578q-0.0937 0.25-0.17188 0.54688-0.0781 0.29688-0.13281 0.61719-0.0625 0.3125-0.0937 0.63281-0.0312 0.32031-0.0312 0.60938 0 0.50781 0.0859 0.85938 0.0781 0.35156 0.22656 0.57812 0.14063 0.22656 0.35156 0.32812 0.21094 0.10156 0.46875 0.10156 0.32032 0 0.55469-0.21094 0.22656-0.21875 0.41406-0.57031 0.17969-0.35938 0.34375-0.80469 0.15625-0.45312 0.34375-0.92188 0.17969-0.47656 0.41407-0.92188 0.23437-0.45312 0.57031-0.80469 0.33594-0.35938 0.79687-0.57031 0.45313-0.21875 1.0781-0.21875zm3.0859 15.328h-10.211v-6.1484h1.625v4.1953h2.5391v-4h1.5859v4h2.8359v-4.1953h1.625zm0 4.0781-3.2812 1.4375q-0.46875 0.20312-0.70313 0.57031-0.24219 0.35938-0.24219 0.85156v0.36719h4.2266v1.9219h-10.211v-2.9766q0-0.84375 0.14844-1.5312 0.14062-0.6875 0.47656-1.1719t0.875-0.74219q0.53906-0.26562 1.3203-0.26562 0.5625 0 1 0.16406 0.4375 0.16406 0.75781 0.46094 0.3125 0.29688 0.50782 0.71094 0.19531 0.40625 0.27343 0.89062 0.0781-0.375 0.42969-0.6875 0.34375-0.3125 1-0.625l3.4219-1.6328zm-7.2031 0.47656q-0.75 0-1.0781 0.47656-0.32813 0.47656-0.32813 1.4297v0.84375h2.8828v-0.78125q0-0.44531-0.0937-0.80469-0.0937-0.36719-0.28125-0.625-0.1875-0.25781-0.46093-0.39844-0.28125-0.14062-0.64063-0.14062zm726.17 140.59-3.7598-8.3789-0.77344-1.8047v10.184h-2.4062v-14.04h3.2441l3.835 8.4326 0.67676 1.6436v-10.076h2.4062v14.04zm-8.3467-7.0791q0 1.9121-0.45117 3.2978-0.44043 1.3857-1.2246 2.2773-0.77344 0.8916-1.8262 1.3213-1.042 0.42969-2.2344 0.42969-2.7715 0-4.168-1.8369-1.3965-1.8476-1.3965-5.3604 0-1.9121 0.44043-3.2978 0.45117-1.3857 1.2246-2.2773 0.78418-0.8916 1.8262-1.3213 1.0527-0.42969 2.2451-0.42969 2.7715 0 4.168 1.8369 1.3965 1.8369 1.3965 5.3604zm-2.793 0.1289q0-2.4922-0.66601-3.7168-0.66602-1.2246-2.1914-1.2246-0.76269 0-1.2998 0.32226-0.53711 0.31153-0.8916 0.92383-0.34375 0.61231-0.50489 1.5146-0.16113 0.8916-0.16113 2.0518 0 2.4922 0.66602 3.7168 0.67675 1.2246 2.1914 1.2246 0.7627 0 1.2998-0.31152 0.54785-0.32227 0.8916-0.93457 0.34375-0.61231 0.50488-1.5039 0.16113-0.90234 0.16113-2.0625zm30.991 350.95q1.4355 0 2.5566 0.60156 1.1074 0.60156 1.873 1.668 0.76563 1.0664 1.1621 2.5156 0.39649 1.4492 0.39649 3.1445 0 0.42382-0.0273 0.90234t-0.0684 0.9707q-0.041 0.49219-0.10937 0.95703-0.0547 0.46485-0.12305 0.86133h-2.9121q0.19141-0.77929 0.31446-1.791 0.10937-1.0117 0.10937-2.0645 0-2.0508-0.7793-3.1172-0.79297-1.0801-2.1875-1.0801-1.4492 0-2.1465 0.99804-0.71094 0.99805-0.71094 3.2266v3.5h-9.502v-10.309h3.1445v7.1914h3.6367v-1.2852q0-1.3672 0.24609-2.6113 0.2461-1.2442 0.86133-2.1875 0.60156-0.95704 1.6406-1.5176 1.0391-0.57422 2.625-0.57422zm5.7148 17.527-3.5273 0.98438v6.2344l3.5273 1.0117v3.3359l-17.869-5.291v-4.7031l17.869-5.291zm-14.588 4.0606 8.3125 2.3516v-4.6758zm-19.205-19.934h3.6367v3.2539h-3.6367v8.3125h-2.8574l-11.375-6.9726v-4.5938h11.293v-2.707h2.9394zm-11.006 3.2129 8.0664 5.0859v-5.0859zm14.643 12.66-3.5273 0.98438v6.2344l3.5273 1.0117v3.3359l-17.869-5.291v-4.7031l17.869-5.291zm-14.588 4.0606 8.3125 2.3516v-4.6758zm-21.023-21.779q1.3262 0 2.3926 0.49219 1.0527 0.49219 1.8047 1.5176 0.73828 1.0117 1.1348 2.5566 0.39649 1.5449 0.39649 3.6367 0 0.46484-0.0273 0.98437-0.0137 0.50586-0.0547 1.0117-0.0273 0.50586-0.082 0.98438-0.041 0.47851-0.10937 0.86132h-2.8984q0.16406-0.86132 0.27344-1.9277 0.0957-1.0801 0.0957-2.2422 0-1.1348-0.19141-1.9551-0.1914-0.82031-0.54687-1.3535-0.36914-0.5332-0.90234-0.7793-0.53321-0.25976-1.2031-0.25976-0.58789 0-1.0664 0.25976-0.47851 0.25977-0.80664 0.79297-0.34179 0.5332-0.51953 1.3672-0.1914 0.82031-0.1914 1.9551v1.9824h-2.543v-1.8184q0-1.0664-0.20508-1.7637-0.21875-0.71094-0.57422-1.1211-0.35547-0.42383-0.83398-0.60156-0.49219-0.17773-1.0254-0.17773-1.0938 0-1.6543 0.71093-0.57422 0.71094-0.57422 2.2012 0 1.0664 0.20508 2.1055 0.20508 1.0391 0.54687 2.1465h-2.8027q-0.20508-0.61524-0.3418-1.1758-0.13672-0.56055-0.23242-1.1211-0.0957-0.56054-0.13672-1.1348-0.041-0.57422-0.041-1.1895 0-1.4766 0.31445-2.584 0.31445-1.1211 0.90234-1.873 0.57422-0.76562 1.4082-1.1484 0.83398-0.38282 1.8594-0.38282 1.627 0 2.6387 0.75196 0.99805 0.73828 1.5312 2.0781 0.13672-0.86133 0.47852-1.5586 0.32812-0.69727 0.86133-1.1895 0.51953-0.50585 1.2031-0.76562 0.6836-0.27344 1.5176-0.27344zm5.4551 17.719-3.5274 0.98438v6.2344l3.5274 1.0117v3.3359l-17.869-5.291v-4.7031l17.869-5.291zm-14.588 4.0606 8.3125 2.3516v-4.6758zm-15.568-9.5977h-2.4609l-4.2246-4.2246q-1.1894-1.1894-2.0508-1.9004-0.86132-0.72461-1.5312-1.1074-0.68359-0.39648-1.2578-0.51953t-1.1894-0.12305q-0.50586 0-0.95703 0.16407-0.46485 0.16406-0.79297 0.47851-0.3418 0.31445-0.53321 0.79297-0.20507 0.47852-0.20507 1.0938 0 1.0527 0.46484 1.9551 0.45117 0.90234 1.2168 1.709l-2.2695 1.7637q-1.0801-1.1621-1.7227-2.6113-0.65625-1.4629-0.65625-3.1582 0-1.3125 0.3418-2.3789 0.32812-1.0664 0.98437-1.8184 0.65625-0.76563 1.6406-1.1758 0.98437-0.42383 2.2695-0.42383 1.0664 0 1.9961 0.28711 0.91602 0.28711 1.791 0.83398 0.875 0.54688 1.75 1.3535 0.875 0.79297 1.8457 1.8184l2.4746 2.5976v-7.5332h3.0762zm0 5.5371-3.5273 0.98438v6.2344l3.5273 1.0117v3.3359l-17.869-5.291v-4.7031l17.869-5.291zm-14.588 4.0606 8.3125 2.3516v-4.6758zm-15.568-9.9121h-2.9668v-4.5527h-11.484l2.1875 3.9648-2.7207 1.0938-2.9941-5.6738v-2.8027h15.012v-3.9238h2.9668zm0 5.8516-3.5274 0.98438v6.2344l3.5274 1.0117v3.3359l-17.869-5.291v-4.7031l17.869-5.291zm-14.588 4.0606 8.3125 2.3516v-4.6758zm-24.924-22.504q2.2012 0 3.9375 0.47852 1.7363 0.47851 2.9394 1.4082 1.1894 0.91602 1.8184 2.2422 0.6289 1.3262 0.6289 3.0352 0 1.4766-0.51953 2.7207t-1.627 2.1465q-1.1211 0.90235-2.8574 1.4082t-4.1562 0.50586q-2.2012 0-3.9375-0.47852-1.7363-0.49219-2.9258-1.4082-1.2031-0.91602-1.832-2.2559-0.62891-1.3398-0.62891-3.0352 0-1.4766 0.51953-2.7207t1.627-2.1328q1.1074-0.90235 2.8438-1.4082 1.7363-0.50586 4.1699-0.50586zm0.0547 10.582q0.27344 0 0.51953 0 0.23243 0 0.47852-0.0273l-4.8398-6.6992q-1.3535 0.47852-1.9961 1.2715-0.65625 0.77929-0.65625 1.8457 0 0.76562 0.39649 1.4219 0.38281 0.65625 1.1894 1.1484 0.80664 0.47852 2.0234 0.76563 1.2168 0.27343 2.8848 0.27343zm0.0547-7.2188q-0.23242 0-0.46484 0.0137-0.2461 0.0137-0.46485 0.0137l4.8125 6.6582q1.3262-0.4375 1.9688-1.2305 0.64258-0.79297 0.64258-1.8457 0-0.76563-0.39648-1.4219-0.39649-0.66992-1.1895-1.1484-0.80664-0.49219-2.0234-0.76563-1.2305-0.27344-2.8848-0.27344zm8.9004 15.08-3.5273 0.98438v6.2344l3.5273 1.0117v3.3359l-17.869-5.291v-4.7031l17.869-5.291zm-14.588 4.0606 8.3125 2.3516v-4.6758zm-47.825-20.835h-5.8184q-1.4678 0-1.4678 1.0898 0 0.54492 0.43945 1.0459 0.43945 0.49219 1.1953 1.0459h5.6514v2.1445h-8.9297v-1.8545l1.3184-0.0527q-0.34277-0.27246-0.62402-0.5625-0.28125-0.29882-0.47461-0.6416-0.20215-0.34277-0.30762-0.73828t-0.10547-0.88769q0-0.68555 0.22852-1.1953 0.21972-0.50976 0.63281-0.85254 0.4043-0.34277 0.98438-0.50976 0.57128-0.17578 1.2832-0.17578h5.9941zm-11.373 10.967q0.29004 0 0.54492 0.10547 0.25489 0.10547 0.44825 0.29883 0.18457 0.18457 0.29882 0.43945 0.10547 0.25489 0.10547 0.55372 0 0.29882-0.10547 0.5625-0.11425 0.25488-0.29882 0.44824-0.19336 0.18457-0.44825 0.29004-0.25488 0.10547-0.54492 0.10547t-0.54492-0.10547-0.44824-0.29004q-0.19336-0.19336-0.29883-0.44824-0.11426-0.26368-0.11426-0.5625 0-0.29883 0.11426-0.55372 0.10547-0.25488 0.29883-0.43945 0.19336-0.19336 0.44824-0.29883t0.54492-0.10547zm4.1133 2.373v2.5225h-1.6699v-4.7197h7.2598v-2.5752h1.6699v7.6025h-1.6699v-2.8301zm7.2598 8.6289v2.8652l-11.487 3.5068v-2.4522l6.917-1.9424 2.2676-0.62403-2.3994-0.65039-6.7852-1.9248v-2.3027zm-89.775-10.512v2.8652l-11.487 3.5068v-2.4522l6.917-1.9424 2.2676-0.62403-2.3994-0.65039-6.7852-1.9248v-2.3027zm-3.6738 7.4268q0.92285 0 1.6436 0.38672 0.71192 0.38671 1.2041 1.0723 0.49218 0.68555 0.74707 1.6172 0.25488 0.93164 0.25488 2.0215 0 0.27246-0.0176 0.58008t-0.0439 0.62402q-0.0264 0.31641-0.0703 0.61524-0.0352 0.29883-0.0791 0.55371h-1.8721q0.12305-0.50098 0.20215-1.1514 0.0703-0.65039 0.0703-1.3272 0-1.3184-0.50097-2.0039-0.50977-0.69434-1.4062-0.69434-0.93164 0-1.3799 0.6416-0.45703 0.64161-0.45703 2.0742v2.25h-6.1084v-6.627h2.0215v4.623h2.3379v-0.82618q0-0.8789 0.1582-1.6787 0.1582-0.7998 0.55371-1.4062 0.38672-0.61523 1.0547-0.97558 0.66797-0.36914 1.6875-0.36914zm-26.482-20.516v2.8652l-11.487 3.5068v-2.4522l6.917-1.9424 2.2676-0.62403-2.3994-0.65039-6.7852-1.9248v-2.3027zm-3.5068 7.4337q0.85253 0 1.5381 0.3164 0.67676 0.31641 1.1602 0.97559 0.47461 0.65039 0.72949 1.6436 0.25488 0.99317 0.25488 2.3379 0 0.29883-0.0176 0.63282-9e-3 0.32519-0.0351 0.65039-0.0176 0.32519-0.0527 0.63281-0.0264 0.30762-0.0703 0.55371h-1.8633q0.10547-0.55371 0.17578-1.2393 0.0615-0.69433 0.0615-1.4414 0-0.72949-0.12304-1.2568-0.12305-0.52734-0.35156-0.87012-0.23731-0.34277-0.58008-0.50097-0.34278-0.16699-0.77344-0.16699-0.37793 0-0.68555 0.16699-0.30761 0.16699-0.51855 0.50976-0.21973 0.34278-0.33399 0.87891-0.12304 0.52734-0.12304 1.2568v1.2744h-1.6348v-1.169q0-0.68554-0.13183-1.1338-0.14063-0.45704-0.36915-0.72071-0.22851-0.27246-0.53613-0.38672-0.3164-0.11425-0.65918-0.11425-0.70312 0-1.0635 0.45703-0.36914 0.45703-0.36914 1.415 0 0.68554 0.13183 1.3535 0.13184 0.66797 0.35156 1.3799h-1.8018q-0.13184-0.3955-0.21973-0.75586-0.0879-0.36035-0.14941-0.7207-0.0615-0.36035-0.0879-0.72949t-0.0264-0.76465q0-0.94922 0.20215-1.6611 0.20214-0.7207 0.58007-1.2041 0.36914-0.49219 0.90528-0.73828 0.53613-0.2461 1.1953-0.2461 1.0459 0 1.6963 0.4834 0.6416 0.47461 0.98437 1.3359 0.0879-0.55371 0.30762-1.002 0.21094-0.44824 0.55371-0.76464 0.33399-0.3252 0.77344-0.49219 0.43945-0.17578 0.97559-0.17578zm0.26367 11.036q0-0.36914 0.14062-0.68555 0.13184-0.31641 0.36914-0.54492 0.22852-0.23731 0.54492-0.36914 0.31641-0.13184 0.67676-0.13184 0.35157 0 0.66797 0.13184 0.30762 0.13183 0.54492 0.36914 0.22852 0.22851 0.36035 0.54492 0.14063 0.31641 0.14063 0.68555 0 0.35156-0.14063 0.65918-0.13183 0.30761-0.36035 0.53613-0.2373 0.22852-0.54492 0.36035-0.3164 0.13184-0.66797 0.13184-0.36035 0-0.67676-0.13184-0.3164-0.13183-0.54492-0.36035-0.2373-0.22852-0.36914-0.53613-0.14062-0.30762-0.14062-0.65918zm-0.26367 3.2272q0.85253 0 1.5381 0.3164 0.67676 0.31641 1.1602 0.97559 0.47461 0.65039 0.72949 1.6436 0.25488 0.99317 0.25488 2.3379 0 0.29883-0.0176 0.63282-9e-3 0.32519-0.0351 0.65039-0.0176 0.32519-0.0527 0.63281-0.0264 0.30762-0.0703 0.55371h-1.8633q0.10547-0.55371 0.17578-1.2393 0.0615-0.69433 0.0615-1.4414 0-0.7295-0.12304-1.2568-0.12305-0.52734-0.35156-0.87012-0.23731-0.34277-0.58008-0.50097-0.34278-0.167-0.77344-0.167-0.37793 0-0.68555 0.167-0.30761 0.16699-0.51855 0.50976-0.21973 0.34278-0.33399 0.87891-0.12304 0.52734-0.12304 1.2568v1.2744h-1.6348v-1.169q0-0.68554-0.13183-1.1338-0.14063-0.45703-0.36915-0.7207-0.22851-0.27246-0.53613-0.38672-0.3164-0.11426-0.65918-0.11426-0.70312 0-1.0635 0.45704-0.36914 0.45703-0.36914 1.415 0 0.68555 0.13183 1.3535 0.13184 0.66797 0.35156 1.3799h-1.8018q-0.13184-0.3955-0.21973-0.75586-0.0879-0.36035-0.14941-0.7207-0.0615-0.36035-0.0879-0.72949t-0.0264-0.76465q0-0.94922 0.20215-1.6611 0.20214-0.72071 0.58007-1.2041 0.36914-0.49219 0.90528-0.73829 0.53613-0.24609 1.1953-0.24609 1.0459 0 1.6963 0.4834 0.6416 0.47461 0.98437 1.3359 0.0879-0.55371 0.30762-1.002 0.21094-0.44824 0.55371-0.76464 0.33399-0.3252 0.77344-0.49219 0.43945-0.17578 0.97559-0.17578zm-36.681-41.001h9.6856v2.2148h-9.6856v3.1465h-1.8018v-8.5078h1.8018zm9.6856 15.335h-11.487v-6.917h1.8281v4.7197h2.8564v-4.5h1.7842v4.5h3.1904v-4.7197h1.8281zm-3.4717 3.5488q0.94043 0 1.6348 0.35156 0.69434 0.34278 1.1514 0.9668 0.44824 0.62402 0.66797 1.4854t0.21973 1.8809q0 0.90527-0.10547 1.749t-0.35157 1.6699h-2.1357q0.14063-0.4043 0.26367-0.84375 0.12305-0.43946 0.21973-0.87891 0.0879-0.44824 0.14063-0.8877 0.0527-0.43945 0.0527-0.85254 0-0.61523-0.10547-1.0459-0.10547-0.43067-0.29004-0.70313t-0.43945-0.39551q-0.25488-0.12304-0.5625-0.12304-0.42188 0-0.70313 0.24609-0.29004 0.23731-0.50976 0.63281-0.21973 0.39551-0.39551 0.90528-0.17578 0.50097-0.37793 1.0283-0.20215 0.51855-0.45703 1.0283-0.25488 0.50097-0.63281 0.89648t-0.89649 0.6416q-0.52734 0.23731-1.2656 0.23731-0.67676 0-1.2832-0.2461-0.60644-0.24609-1.0547-0.77343-0.45703-0.52735-0.72071-1.3535-0.27246-0.82617-0.27246-1.9951 0-0.34277 0.0352-0.71191 0.0264-0.37793 0.0791-0.73828 0.0439-0.36914 0.11426-0.70313 0.0615-0.34277 0.13183-0.62402h1.9775q-0.10547 0.28125-0.19336 0.61523-0.0879 0.33399-0.14941 0.69434-0.0703 0.35156-0.10547 0.71191-0.0352 0.36036-0.0352 0.68555 0 0.57129 0.0967 0.9668 0.0879 0.39551 0.25489 0.65039 0.1582 0.25488 0.39551 0.36914 0.2373 0.11426 0.52734 0.11426 0.36035 0 0.62402-0.23731 0.25489-0.24609 0.46582-0.6416 0.20215-0.4043 0.38672-0.90527 0.17578-0.50977 0.38672-1.0371 0.20215-0.53613 0.46582-1.0371 0.26367-0.50977 0.6416-0.90527 0.37793-0.4043 0.89649-0.64161 0.50976-0.24609 1.2129-0.24609zm3.4717 18.244h-11.487v-6.917h1.8281v4.7197h2.8564v-4.5h1.7842v4.5h3.1904v-4.7197h1.8281zm0 5.5879-3.6914 1.6172q-0.52734 0.22851-0.79101 0.6416-0.27247 0.4043-0.27247 0.95801v0.41308h4.7549v2.1621h-11.487v-3.3486q0-0.94922 0.16699-1.7227 0.15821-0.77343 0.53614-1.3184 0.37793-0.54492 0.98437-0.83496 0.60645-0.29882 1.4854-0.29882 0.63282 0 1.125 0.18457 0.49219 0.18457 0.85254 0.51855 0.35157 0.33399 0.57129 0.79981 0.21973 0.45703 0.30762 1.002 0.0879-0.42188 0.4834-0.77344 0.38672-0.35156 1.125-0.70312l3.8496-1.8369zm-8.1035 0.53613q-0.84375 0-1.2129 0.53614-0.36914 0.53613-0.36914 1.6084v0.94921h3.2432v-0.8789q0-0.50098-0.10546-0.90528-0.10547-0.41308-0.31641-0.70312t-0.51856-0.44824q-0.3164-0.15821-0.7207-0.15821zm-31.365-40.826h3.1816v-4.3418h1.7754v4.3418h4.7022v2.1973h-11.487v-6.7852h1.8281zm9.6592 13.094h-11.487v-6.917h1.8281v4.7197h2.8564v-4.5h1.7842v4.5h3.1904v-4.7197h1.8281zm0 5.5879-3.6914 1.6172q-0.52734 0.22852-0.79101 0.6416-0.27246 0.4043-0.27246 0.95801v0.41309h4.7549v2.1621h-11.487v-3.3486q0-0.94922 0.167-1.7226 0.1582-0.77344 0.53613-1.3184 0.37793-0.54493 0.98437-0.83496 0.60645-0.29883 1.4854-0.29883 0.63281 0 1.125 0.18457 0.49218 0.18457 0.85254 0.51855 0.35156 0.33399 0.57128 0.79981 0.21973 0.45703 0.30762 1.002 0.0879-0.42187 0.4834-0.77344 0.38672-0.35156 1.125-0.70312l3.8496-1.8369zm-8.1035 0.53614q-0.84375 0-1.2129 0.53613t-0.36914 1.6084v0.94922h3.2432v-0.87891q0-0.50098-0.10547-0.90527-0.10547-0.41309-0.31641-0.70313t-0.51855-0.44824q-0.31641-0.1582-0.72071-0.1582zm2.3115 7.7148q1.5644 0 2.6982 0.36914 1.1338 0.36035 1.8633 1.002 0.72949 0.63282 1.0811 1.4941 0.35156 0.85254 0.35156 1.8281 0 2.2676-1.5029 3.4102-1.5117 1.1426-4.3857 1.1426-1.5645 0-2.6982-0.36035-1.1338-0.36914-1.8633-1.002-0.72949-0.6416-1.081-1.4941-0.35156-0.86133-0.35156-1.8369 0-2.2676 1.5029-3.4102 1.5029-1.1426 4.3858-1.1426zm0.10547 2.2852q-2.0391 0-3.041 0.54492t-1.002 1.793q0 0.62402 0.26367 1.0635 0.25488 0.43946 0.75586 0.72949 0.50097 0.28125 1.2393 0.41309 0.72949 0.13184 1.6787 0.13184 2.0391 0 3.041-0.54493 1.002-0.55371 1.002-1.793 0-0.62403-0.25489-1.0635-0.26367-0.44824-0.76465-0.72949-0.50097-0.28125-1.2305-0.41309-0.73829-0.13183-1.6875-0.13183zm-4.0342 16.864h-1.7666v-7.2598h1.7666v2.5312h7.9365v-2.5312h1.7842v7.2598h-1.7842v-2.5312h-7.9365zm-61.239-437.47v-11.487h2.1973v9.6328h4.8516v1.8545zm454.71-63.485v10.57l-4.0527-4.2715-3.6719-0.01 9.1309 9.6562 9.1289-9.6562-3.6699 0.01-4.0547 4.2734v-10.572zm7.1492 20.117-4.2275 2.2148 4.2275 2.1797v2.6104l-5.8887-3.3135-5.5986 3.0938v-2.54l3.999-2.083-3.999-2.0127v-2.54l5.5986 3.0762 5.8887-3.4365zm0 11.046-3.6914 1.6172q-0.52735 0.22852-0.79102 0.6416-0.27246 0.4043-0.27246 0.95801v0.41309h4.7549v2.1621h-11.487v-3.3486q0-0.94922 0.16699-1.7226 0.1582-0.77344 0.53613-1.3184t0.98438-0.83496q0.60644-0.29883 1.4854-0.29883 0.63281 0 1.125 0.18457t0.85254 0.51855q0.35156 0.33399 0.57129 0.79981 0.21972 0.45703 0.30761 1.002 0.0879-0.42187 0.4834-0.77344 0.38672-0.35156 1.125-0.70312l3.8496-1.8369zm-8.1035 0.53614q-0.84375 0-1.2129 0.53613-0.36915 0.53613-0.36915 1.6084v0.94922h3.2432v-0.87891q0-0.50098-0.10547-0.90527-0.10547-0.41309-0.31641-0.70313-0.21093-0.29004-0.51855-0.44824-0.31641-0.1582-0.7207-0.1582zm-28.651-31.699-9.1309 9.6562 3.6719-0.01 4.0527-4.2715v10.57h2.8106v-10.572l4.0547 4.2734 3.6699 0.01zm5.7425 20.117-4.2275 2.2148 4.2275 2.1797v2.6104l-5.8887-3.3135-5.5986 3.0938v-2.54l3.999-2.083-3.999-2.0127v-2.54l5.5986 3.0762 5.8887-3.4365zm-9.6855 11.916h9.6855v2.2148h-9.6855v3.1465h-1.8018v-8.5078h1.8018zm34.091-52.613q2.2012 0 3.9375 0.47852 1.7363 0.47852 2.9395 1.4082 1.1894 0.91602 1.8184 2.2422 0.6289 1.3262 0.6289 3.0352 0 1.4766-0.51953 2.7207-0.51953 1.2441-1.627 2.1465-1.1211 0.90234-2.8574 1.4082-1.7363 0.50586-4.1562 0.50586-2.2012 0-3.9375-0.47852-1.7363-0.49219-2.9258-1.4082-1.2031-0.91602-1.832-2.2559-0.6289-1.3398-0.6289-3.0352 0-1.4766 0.51953-2.7207 0.51953-1.2441 1.627-2.1328 1.1074-0.90234 2.8438-1.4082 1.7363-0.50586 4.1699-0.50586zm0.0547 10.582q0.27344 0 0.51953 0 0.23242 0 0.47852-0.02734l-4.8398-6.6992q-1.3535 0.47852-1.9961 1.2715-0.65625 0.7793-0.65625 1.8457 0 0.76562 0.39648 1.4219 0.38282 0.65625 1.1895 1.1484 0.80664 0.47852 2.0234 0.76562 1.2168 0.27344 2.8848 0.27344zm0.0547-7.2188q-0.23242 0-0.46485 0.01367-0.24609 0.01367-0.46484 0.01367l4.8125 6.6582q1.3262-0.4375 1.9688-1.2305t0.64258-1.8457q0-0.76562-0.39649-1.4219-0.39648-0.66992-1.1894-1.1484-0.80664-0.49219-2.0234-0.76562-1.2305-0.27344-2.8848-0.27344zm-21.269 9.2285h-2.9668v-4.5527h-11.484l2.1875 3.9648-2.7207 1.0938-2.9941-5.6738v-2.8027h15.012v-3.9238h2.9668zm-29.062 0.31446h-2.4609l-4.2246-4.2246q-1.1895-1.1895-2.0508-1.9004-0.86133-0.72461-1.5312-1.1074-0.6836-0.39648-1.2578-0.51953t-1.1894-0.12305q-0.50586 0-0.95703 0.16406-0.46484 0.16406-0.79297 0.47852-0.3418 0.31445-0.5332 0.79297-0.20508 0.47852-0.20508 1.0938 0 1.0527 0.46484 1.9551 0.45117 0.90234 1.2168 1.709l-2.2695 1.7637q-1.0801-1.1621-1.7227-2.6113-0.65625-1.4629-0.65625-3.1582 0-1.3125 0.3418-2.3789 0.32812-1.0664 0.98437-1.8184 0.65625-0.76562 1.6406-1.1758 0.98437-0.42383 2.2695-0.42383 1.0664 0 1.9961 0.28711 0.91602 0.28711 1.791 0.83398t1.75 1.3535q0.875 0.79297 1.8457 1.8184l2.4746 2.5977v-7.5332h3.0762zm-36.366-12.182q1.3262 0 2.3926 0.49219 1.0527 0.49219 1.8047 1.5176 0.73828 1.0117 1.1348 2.5566 0.39649 1.5449 0.39649 3.6367 0 0.46484-0.0273 0.98438-0.0137 0.50586-0.0547 1.0117-0.0273 0.50586-0.082 0.98438-0.041 0.47851-0.10937 0.86133h-2.8984q0.16406-0.86133 0.27344-1.9277 0.0957-1.0801 0.0957-2.2422 0-1.1348-0.1914-1.9551-0.19141-0.82031-0.54688-1.3535-0.36914-0.5332-0.90234-0.7793-0.53321-0.25977-1.2031-0.25977-0.58789 0-1.0664 0.25977-0.47852 0.25976-0.80665 0.79297-0.34179 0.5332-0.51953 1.3672-0.1914 0.82031-0.1914 1.9551v1.9824h-2.543v-1.8184q0-1.0664-0.20508-1.7637-0.21875-0.71094-0.57422-1.1211-0.35547-0.42383-0.83398-0.60156-0.49219-0.17773-1.0254-0.17773-1.0938 0-1.6543 0.71094-0.57422 0.71094-0.57422 2.2012 0 1.0664 0.20508 2.1055 0.20508 1.0391 0.54687 2.1465h-2.8027q-0.20508-0.61523-0.3418-1.1758-0.13672-0.56055-0.23242-1.1211-0.0957-0.56055-0.13672-1.1348-0.041-0.57422-0.041-1.1895 0-1.4766 0.31445-2.584 0.31445-1.1211 0.90234-1.873 0.57422-0.76562 1.4082-1.1484 0.83398-0.38281 1.8594-0.38281 1.627 0 2.6387 0.75195 0.99805 0.73828 1.5312 2.0781 0.13672-0.86133 0.47852-1.5586 0.32812-0.69727 0.86133-1.1895 0.51953-0.50586 1.2031-0.76562 0.6836-0.27344 1.5176-0.27344zm-3.6854 18.459q0.68554 0 1.3096 0.14062 0.61523 0.14063 1.0898 0.45703 0.46582 0.31641 0.73828 0.83496 0.27246 0.50977 0.27246 1.248 0 0.49219-0.1582 0.89649-0.16699 0.3955-0.4043 0.72949-0.24609 0.32519-0.52734 0.60644-0.29004 0.27246-0.52735 0.52735-0.2373 0.25488-0.3955 0.50097-0.167 0.2461-0.167 0.51856 0 0.38672 0.34278 0.59765 0.34277 0.21094 1.2041 0.21094v1.8018q-0.68555 0-1.3008-0.14063-0.62403-0.14062-1.0898-0.45703-0.46582-0.3164-0.73828-0.82617-0.27246-0.51855-0.27246-1.2568 0-0.49219 0.16699-0.8877 0.15821-0.4043 0.4043-0.72949 0.23731-0.33399 0.51856-0.60645 0.28125-0.28125 0.52734-0.53613 0.2373-0.25488 0.4043-0.50098 0.1582-0.24609 0.1582-0.51855 0-0.39551-0.34277-0.59766-0.35157-0.21093-1.2129-0.21093zm-25.133-16.613h3.6367v3.2539h-3.6367v8.3125h-2.8574l-11.375-6.9727v-4.5938h11.293v-2.707h2.9394zm-11.006 3.2129 8.0664 5.0859v-5.0859zm-23.91 13.4q0.68555 0 1.3096 0.14062 0.61524 0.14063 1.0898 0.45703 0.46582 0.31641 0.73828 0.83496 0.27246 0.50977 0.27246 1.248 0 0.49219-0.1582 0.89649-0.16699 0.3955-0.4043 0.72949-0.24609 0.32519-0.52734 0.60644-0.29004 0.27246-0.52735 0.52735-0.2373 0.25488-0.3955 0.50097-0.167 0.2461-0.167 0.51856 0 0.38672 0.34278 0.59765 0.34277 0.21094 1.2041 0.21094v1.8018q-0.68555 0-1.3008-0.14063-0.62403-0.14062-1.0898-0.45703-0.46582-0.3164-0.73828-0.82617-0.27246-0.51855-0.27246-1.2568 0-0.49219 0.16699-0.8877 0.15821-0.4043 0.4043-0.72949 0.2373-0.33399 0.51855-0.60645 0.28125-0.28125 0.52735-0.53613 0.2373-0.25488 0.4043-0.50098 0.1582-0.24609 0.1582-0.51855 0-0.39551-0.34277-0.59766-0.35157-0.21093-1.2129-0.21093zm3.5023-17.994q1.4356 0 2.5566 0.60156 1.1074 0.60156 1.873 1.668 0.76563 1.0664 1.1621 2.5156 0.39649 1.4492 0.39649 3.1445 0 0.42383-0.0273 0.90234-0.0273 0.47852-0.0684 0.9707-0.041 0.49219-0.10937 0.95703-0.0547 0.46485-0.12305 0.86133h-2.9121q0.19141-0.77929 0.31445-1.791 0.10938-1.0117 0.10938-2.0645 0-2.0508-0.7793-3.1172-0.79297-1.0801-2.1875-1.0801-1.4492 0-2.1465 0.99805-0.71094 0.99805-0.71094 3.2266v3.5h-9.502v-10.309h3.1445v7.1914h3.6367v-1.2852q0-1.3672 0.24609-2.6113 0.24609-1.2441 0.86133-2.1875 0.60156-0.95703 1.6406-1.5176 1.0391-0.57422 2.625-0.57422zm-29.321-0.58789q1.3535 0 2.4609 0.49219 1.0938 0.49219 1.8867 1.3672 0.7793 0.86133 1.2031 2.0645 0.42383 1.2031 0.42383 2.6387 0 3.1309-1.9688 4.7852-1.9688 1.6543-6.0156 1.6543-1.4766 0-2.8027-0.17773-1.3398-0.17774-2.4609-0.58789-1.1348-0.42383-2.0508-1.1211-0.91601-0.71094-1.5449-1.7637-0.64258-1.0527-0.98437-2.4883-0.35547-1.4355-0.35547-3.3359v-2.0371h2.8301v2.3789q0 1.4766 0.30078 2.4746t0.86133 1.627q0.56054 0.62891 1.3672 0.94336t1.8184 0.41016l0.32813 0.02734q-0.3418-0.71094-0.56055-1.6133-0.21875-0.91602-0.21875-1.9141 0-1.4492 0.38281-2.543 0.36914-1.0938 1.0801-1.8184 0.71094-0.73828 1.7227-1.0938 1.0117-0.36914 2.2969-0.36914zm0.15039 3.4727q-0.6289 0-1.1484 0.16406-0.53321 0.16406-0.90235 0.51953-0.38281 0.3418-0.58789 0.88867-0.21875 0.5332-0.21875 1.2852 0 0.4375 0.082 0.875 0.0684 0.42383 0.19141 0.83398 0.12305 0.39648 0.27344 0.76562 0.15039 0.35547 0.31445 0.64258 1.3809 0 2.3379-0.19141 0.94336-0.19141 1.5449-0.57422 0.60156-0.39648 0.875-0.9707 0.25977-0.58789 0.25977-1.3535 0-0.65625-0.21875-1.1895t-0.61524-0.90234q-0.41015-0.38281-0.95703-0.58789-0.56054-0.20508-1.2305-0.20508zm-4.6606 15.109q0.68555 0 1.3096 0.14062 0.61523 0.14063 1.0898 0.45703 0.46582 0.31641 0.73828 0.83496 0.27247 0.50977 0.27247 1.248 0 0.49219-0.15821 0.89649-0.16699 0.3955-0.40429 0.72949-0.2461 0.32519-0.52735 0.60644-0.29004 0.27246-0.52734 0.52735-0.23731 0.25488-0.39551 0.50097-0.16699 0.2461-0.16699 0.51856 0 0.38672 0.34277 0.59765 0.34277 0.21094 1.2041 0.21094v1.8018q-0.68554 0-1.3008-0.14063-0.62402-0.14062-1.0898-0.45703-0.46582-0.3164-0.73828-0.82617-0.27246-0.51855-0.27246-1.2568 0-0.49219 0.16699-0.8877 0.1582-0.4043 0.40429-0.72949 0.23731-0.33399 0.51856-0.60645 0.28125-0.28125 0.52734-0.53613 0.23731-0.25488 0.4043-0.50098 0.1582-0.24609 0.1582-0.51855 0-0.39551-0.34277-0.59766-0.35156-0.21093-1.2129-0.21093zm-20.537-10.925v3.7734l-14.643-7.1094v8.5723h-3.2266v-12.414h2.9121zm-57.121-4.3887q0.36914-0.66992 0.82031-1.2715 0.4375-0.61523 1.0254-1.0664 0.57422-0.46484 1.3125-0.72461 0.72461-0.27344 1.6543-0.27344 1.2168 0 2.1465 0.49219 0.92969 0.49219 1.5586 1.3672 0.6289 0.86133 0.94336 2.0371 0.31445 1.1621 0.31445 2.5156 0 1.5039-0.31445 2.666-0.32813 1.1484-0.91602 1.9414-0.58789 0.7793-1.4219 1.1894-0.83398 0.39649-1.8594 0.39649-0.91602 0-1.627-0.25977-0.72461-0.27344-1.3125-0.73828t-1.0527-1.0664q-0.46484-0.61523-0.86133-1.2988-0.35546 0.61524-0.77929 1.1621-0.42383 0.5332-0.95703 0.94335-0.53321 0.41016-1.1895 0.65625-0.65625 0.23243-1.4902 0.23243-0.9707 0-1.8184-0.36914-0.86133-0.38282-1.5039-1.1211-0.64258-0.75195-1.0117-1.873-0.36914-1.1348-0.36914-2.6523 0-1.3945 0.30078-2.4883 0.28711-1.0938 0.83399-1.832 0.54687-0.75195 1.3125-1.1348 0.75195-0.39648 1.668-0.39648 0.84765 0 1.5312 0.23242 0.68359 0.23242 1.2441 0.62891 0.54687 0.39648 0.99805 0.94336 0.4375 0.54688 0.82031 1.1621zm-1.2852 2.625q-0.27344-0.49219-0.57422-0.91602-0.31445-0.4375-0.68359-0.75195t-0.80664-0.50586q-0.4375-0.19141-0.9707-0.19141-0.88868 0-1.3535 0.69727-0.46484 0.69726-0.46484 2.0098 0 1.2852 0.47851 1.9824 0.47852 0.69727 1.4356 0.69727 0.51953 0 0.92969-0.23242 0.41015-0.23242 0.76562-0.64258 0.3418-0.41016 0.64258-0.95703 0.30078-0.56055 0.60156-1.1895zm3.0215 0.69727q0.28711 0.5332 0.61523 1.0117 0.32813 0.46484 0.72461 0.82031 0.39648 0.3418 0.875 0.54688 0.46484 0.20508 1.0527 0.20508 1.0391 0 1.5859-0.80664 0.54688-0.80664 0.54688-2.1328 0-0.60156-0.12305-1.1348t-0.38281-0.92969q-0.25977-0.41016-0.65625-0.64258-0.41016-0.23242-0.97071-0.23242-0.57421 0-1.0254 0.25977-0.46484 0.25976-0.84765 0.71094-0.38282 0.45117-0.72461 1.0527-0.3418 0.60156-0.66992 1.2715zm-33.107-6.6309q2.1055 0 3.6777 0.35547 1.5586 0.35547 2.666 1.0117 1.1074 0.64258 1.8184 1.5449 0.71094 0.90234 1.1211 2.0098 0.41015 1.0938 0.56055 2.3516 0.15039 1.2441 0.15039 2.584v2.0645h-2.8574v-2.4336q0-1.5996-0.27343-2.666-0.28711-1.0801-0.82032-1.7363-0.54687-0.66992-1.3535-0.98438-0.80664-0.32812-1.8594-0.4375l-0.34179-0.02734q0.34179 0.72461 0.56054 1.6543 0.21875 0.92969 0.21875 1.873 0 1.2988-0.30078 2.3652-0.30078 1.0664-0.95703 1.8457-0.65625 0.76562-1.6953 1.1894-1.0527 0.42383-2.5293 0.42383-1.3398 0-2.4336-0.47852-1.1074-0.49219-1.8867-1.3535-0.7793-0.875-1.2031-2.0645-0.4375-1.2031-0.4375-2.625 0-1.3945 0.39649-2.5703 0.39648-1.1895 1.3535-2.0508 0.94336-0.875 2.5156-1.3535 1.5723-0.49219 3.9102-0.49219zm-5.373 6.6309q0 0.65625 0.21875 1.1895t0.61523 0.91602q0.39649 0.36914 0.95703 0.57422 0.54688 0.20508 1.2305 0.20508 1.4492 0 2.1602-0.76562 0.69726-0.76562 0.69726-2.1191 0-0.36914-0.0684-0.7793-0.0684-0.42383-0.19141-0.83398-0.12305-0.42383-0.27344-0.79297-0.16406-0.38281-0.3418-0.66992-1.2168 0-2.1465 0.16406-0.92969 0.15039-1.5586 0.51953-0.64258 0.35547-0.97071 0.94336-0.32812 0.58789-0.32812 1.4492zm5.9092 10.605q0.68555 0 1.3096 0.14062 0.61523 0.14063 1.0898 0.45703 0.46582 0.31641 0.73828 0.83496 0.27246 0.50977 0.27246 1.248 0 0.49219-0.1582 0.89648-0.16699 0.39551-0.4043 0.7295-0.24609 0.32519-0.52734 0.60644-0.29004 0.27246-0.52734 0.52734-0.23731 0.25489-0.39551 0.50098-0.16699 0.2461-0.16699 0.51856 0 0.38671 0.34277 0.59765t1.2041 0.21094v1.8018q-0.68554 0-1.3008-0.14063-0.62402-0.14062-1.0898-0.45703-0.46582-0.3164-0.73828-0.82617-0.27247-0.51856-0.27247-1.2568 0-0.49218 0.167-0.88769 0.1582-0.4043 0.40429-0.72949 0.23731-0.33399 0.51856-0.60645 0.28125-0.28125 0.52734-0.53613 0.23731-0.25488 0.4043-0.50098 0.1582-0.24609 0.1582-0.51855 0-0.39551-0.34277-0.59766-0.35156-0.21094-1.2129-0.21094zm-30.703-18.165q2.2012 0 3.9375 0.47852t2.9394 1.4082q1.1894 0.91602 1.8184 2.2422t0.62891 3.0352q0 1.4766-0.51953 2.7207-0.51954 1.2441-1.627 2.1465-1.1211 0.90235-2.8574 1.4082t-4.1562 0.50586q-2.2012 0-3.9375-0.47852-1.7363-0.49219-2.9258-1.4082-1.2031-0.91602-1.832-2.2559-0.62891-1.3398-0.62891-3.0352 0-1.4766 0.51953-2.7207 0.51953-1.2441 1.627-2.1328 1.1074-0.90234 2.8438-1.4082 1.7363-0.50586 4.1699-0.50586zm0.0547 10.582q0.27343 0 0.51953 0 0.23242 0 0.47851-0.02734l-4.8398-6.6992q-1.3535 0.47852-1.9961 1.2715-0.65625 0.7793-0.65625 1.8457 0 0.76562 0.39649 1.4219 0.38281 0.65625 1.1894 1.1484 0.80664 0.47852 2.0234 0.76562 1.2168 0.27344 2.8848 0.27344zm0.0547-7.2188q-0.23242 0-0.46484 0.01367-0.24609 0.01367-0.46484 0.01367l4.8125 6.6582q1.3262-0.4375 1.9688-1.2305 0.64257-0.79297 0.64257-1.8457 0-0.76562-0.39648-1.4219-0.39649-0.66992-1.1894-1.1484-0.80664-0.49219-2.0234-0.76562-1.2305-0.27344-2.8848-0.27344zm8.9004 25.623h-2.9668v-4.5527h-11.484l2.1875 3.9648-2.7207 1.0938-2.9941-5.6738v-2.8027h15.012v-3.9238h2.9668zm-8.3652 4.2522q0.68555 0 1.3096 0.14062 0.61523 0.14063 1.0898 0.45703 0.46582 0.31641 0.73828 0.83496 0.27247 0.50977 0.27247 1.248 0 0.49219-0.15821 0.89649-0.16699 0.3955-0.40429 0.72949-0.2461 0.32519-0.52735 0.60644-0.29004 0.27246-0.52734 0.52735-0.23731 0.25488-0.39551 0.50097-0.16699 0.2461-0.16699 0.51856 0 0.38672 0.34277 0.59765 0.34277 0.21094 1.2041 0.21094v1.8018q-0.68554 0-1.3008-0.14063-0.62402-0.14062-1.0898-0.45703-0.46582-0.3164-0.73828-0.82617-0.27246-0.51855-0.27246-1.2568 0-0.49219 0.16699-0.8877 0.1582-0.4043 0.40429-0.72949 0.23731-0.33399 0.51856-0.60645 0.28125-0.28125 0.52734-0.53613 0.23731-0.25488 0.4043-0.50098 0.1582-0.24609 0.1582-0.51855 0-0.39551-0.34277-0.59766-0.35156-0.21093-1.2129-0.21093zm-29.044 0q0.68555 0 1.3096 0.14062 0.61524 0.14063 1.0898 0.45703 0.46583 0.31641 0.73829 0.83496 0.27246 0.50977 0.27246 1.248 0 0.49219-0.15821 0.89649-0.16699 0.3955-0.40429 0.72949-0.2461 0.32519-0.52735 0.60644-0.29004 0.27246-0.52734 0.52735-0.23731 0.25488-0.39551 0.50097-0.16699 0.2461-0.16699 0.51856 0 0.38672 0.34277 0.59765 0.34278 0.21094 1.2041 0.21094v1.8018q-0.68554 0-1.3008-0.14063-0.62402-0.14062-1.0898-0.45703-0.46582-0.3164-0.73828-0.82617-0.27246-0.51855-0.27246-1.2568 0-0.49219 0.16699-0.8877 0.1582-0.4043 0.4043-0.72949 0.2373-0.33399 0.51855-0.60645 0.28125-0.28125 0.52734-0.53613 0.23731-0.25488 0.4043-0.50098 0.1582-0.24609 0.1582-0.51855 0-0.39551-0.34277-0.59766-0.35156-0.21093-1.2129-0.21093zm8.3652-20.647h-2.9668v-4.5527h-11.484l2.1875 3.9648-2.7207 1.0938-2.9941-5.6738v-2.8027h15.012v-3.9238h2.9668zm0 16.395h-2.9668v-4.5527h-11.484l2.1875 3.9648-2.7207 1.0938-2.9941-5.6738v-2.8027h15.012v-3.9238h2.9668zm-30.27-16.08h-2.4609l-4.2246-4.2246q-1.1895-1.1895-2.0508-1.9004-0.86132-0.72461-1.5312-1.1074-0.68359-0.39648-1.2578-0.51953t-1.1894-0.12305q-0.50586 0-0.95703 0.16406-0.46485 0.16406-0.79297 0.47852-0.3418 0.31445-0.5332 0.79297-0.20508 0.47852-0.20508 1.0938 0 1.0527 0.46484 1.9551 0.45117 0.90234 1.2168 1.709l-2.2695 1.7637q-1.0801-1.1621-1.7227-2.6113-0.65625-1.4629-0.65625-3.1582 0-1.3125 0.3418-2.3789 0.32812-1.0664 0.98437-1.8184 0.65625-0.76562 1.6406-1.1758 0.98437-0.42383 2.2695-0.42383 1.0664 0 1.9961 0.28711 0.91602 0.28711 1.791 0.83398t1.75 1.3535q0.875 0.79297 1.8457 1.8184l2.4746 2.5977v-7.5332h3.0762zm0 16.08h-2.9668v-4.5527h-11.484l2.1875 3.9648-2.7207 1.0938-2.9941-5.6738v-2.8027h15.012v-3.9238h2.9668zm-35.725-28.262q1.3262 0 2.3926 0.49219 1.0527 0.49219 1.8047 1.5176 0.73828 1.0117 1.1348 2.5566 0.39649 1.5449 0.39649 3.6367 0 0.46484-0.0273 0.98438-0.0137 0.50586-0.0547 1.0117-0.0274 0.50586-0.082 0.98438-0.041 0.47851-0.10938 0.86133h-2.8984q0.16407-0.86133 0.27344-1.9277 0.0957-1.0801 0.0957-2.2422 0-1.1348-0.1914-1.9551-0.19141-0.82031-0.54688-1.3535-0.36914-0.5332-0.90234-0.7793-0.5332-0.25976-1.2031-0.25976-0.58789 0-1.0664 0.25976-0.47852 0.25977-0.80664 0.79297-0.3418 0.5332-0.51953 1.3672-0.19141 0.82031-0.19141 1.9551v1.9824h-2.543v-1.8184q0-1.0664-0.20508-1.7637-0.21875-0.71094-0.57422-1.1211-0.35546-0.42383-0.83398-0.60156-0.49219-0.17773-1.0254-0.17773-1.0938 0-1.6543 0.71094-0.57422 0.71094-0.57422 2.2012 0 1.0664 0.20508 2.1055 0.20508 1.0391 0.54688 2.1465h-2.8027q-0.20508-0.61523-0.34179-1.1758-0.13672-0.56055-0.23243-1.1211-0.0957-0.56055-0.13672-1.1348-0.041-0.57422-0.041-1.1895 0-1.4766 0.31445-2.584 0.31446-1.1211 0.90235-1.873 0.57421-0.76562 1.4082-1.1484 0.83398-0.38281 1.8594-0.38281 1.627 0 2.6387 0.75195 0.99804 0.73828 1.5312 2.0781 0.13671-0.86133 0.47851-1.5586 0.32813-0.69726 0.86133-1.1895 0.51953-0.50586 1.2031-0.76562 0.6836-0.27344 1.5176-0.27344zm5.4551 28.262h-2.9668v-4.5527h-11.484l2.1875 3.9648-2.7207 1.0938-2.9941-5.6738v-2.8027h15.012v-3.9238h2.9668zm-73.262-19.565h3.5352v-4.8242h1.9727v4.8242h5.2246v2.4414h-12.764v-7.5391h2.0312zm10.732 14.438h-12.764v-7.6856h2.0312v5.2441h3.1738v-5h1.9824v5h3.5449v-5.2441h2.0312zm0 6.0977-4.1016 1.7969q-0.58594 0.25391-0.8789 0.71289-0.30274 0.44922-0.30274 1.0644v0.45899h5.2832v2.4023h-12.764v-3.7207q0-1.0547 0.18555-1.9141 0.17578-0.85938 0.5957-1.4648t1.0938-0.92773q0.67383-0.33203 1.6504-0.33203 0.70313 0 1.25 0.20508 0.54688 0.20507 0.94727 0.57617 0.39062 0.37109 0.63476 0.88867 0.24415 0.50781 0.3418 1.1133 0.0977-0.46875 0.53711-0.85937 0.42969-0.39063 1.25-0.78125l4.2773-2.041zm-9.0039 0.5957q-0.9375 0-1.3477 0.5957-0.41015 0.5957-0.41015 1.7871v1.0547h3.6035v-0.97656q0-0.55664-0.11719-1.0059-0.11718-0.45899-0.35156-0.78125-0.23437-0.32227-0.57617-0.49805-0.35156-0.17578-0.80078-0.17578zm9.0039 10.795-2.5195 0.70313v4.4531l2.5195 0.72266v2.3828l-12.764-3.7793v-3.3594l12.764-3.7793zm-10.42 2.9004 5.9375 1.6797v-3.3398z" style="fill:#ffffff;stroke-width:2;text-orientation:sideways"/>
  <path d="m885.99 290.45h47.315v88.513h-47.315z" style="fill:#141414;stroke-width:2"/>
  <path d="m916.7 351.4h-30.706l-6.3794 5.9948v15.582l6.3794 5.9868h47.315l6.3794-5.9868v-15.582l-6.3794-5.9948zm0-30.475h-30.706l-6.3794 5.9948v15.582l6.3794 5.9868h47.315l6.3794-5.9868v-15.582l-6.3794-5.9948zm0-30.475h-30.706l-6.3794 5.9948v15.582l6.3794 5.9868h47.315l6.3794-5.9868v-15.582l-6.3794-5.9948z" style="fill:#1a1a1a;stroke-width:1.25"/>
  <path d="m897.78 367.55-4.7637 1e-5 -1e-5 -4.7557 4.7637-1e-5zm28.51 1e-5 -4.7637 2e-5 -1e-5 -4.7557 4.7637-2e-5zm-28.51-30.475-4.7637 1e-5 -1e-5 -4.7557 4.7637-1e-5zm28.51-2e-5 -4.7637 2e-5 -1e-5 -4.7557 4.7637-2e-5zm-28.51-30.475-4.7637 1e-5 -1e-5 -4.7557 4.7637-1e-5zm28.51 2e-5 -4.7637 2e-5 -1e-5 -4.7557 4.7637-2e-5z" style="fill:#f5e6d1;stroke-width:1.25"/>
  <path d="m897.76 362.81 2.2432-2.2472h-9.2259l2.2392 2.2472zm23.766 0h4.7436l2.2432-2.2472h-9.2259zm-28.51-30.475h4.7436l2.2432-2.2472h-9.2259zm26.27-2.2472 2.2392 2.2472h4.7436l2.2432-2.2472zm-28.51-30.475 2.2392 2.2472h4.7436l2.2432-2.2472zm37.736 0h-9.2259l2.2392 2.2472h4.7436z" style="fill:#cdcdcc;stroke-width:1.25"/>
  <path d="m900.01 369.79h-9.2259l2.2392-2.2432h4.7436zm26.266-2.2432 2.2432 2.2432h-9.2259l2.2392-2.2432zm-28.51-30.475 2.2432 2.2432h-9.2259l2.2392-2.2432zm23.766 0h4.7436l2.2432 2.2432h-9.2259zm-28.51-30.475h4.7436l2.2432 2.2432h-9.2259zm26.27 2.2432 2.2392-2.2432h4.7436l2.2432 2.2432z" style="fill:#797672;stroke-width:1.25"/>
  <path d="m893.02 367.55-2.2392 2.2432v-9.234l2.2392 2.2472zm6.9868-6.9908v9.234l-2.2432-2.2432v-4.7436zm21.523 2.2472v4.7436l-2.2392 2.2432v-9.234zm4.7436 0 2.2432-2.2472v9.234l-2.2432-2.2432zm-33.253-30.475v4.7436l-2.2392 2.2432v-9.234zm4.7436 0 2.2432-2.2472v9.234l-2.2432-2.2432zm21.527-2.2472 2.2392 2.2472v4.7436l-2.2392 2.2432zm6.9828 6.9908v-4.7436l2.2432-2.2472v9.234zm-35.492-37.466 2.2392 2.2472v4.7436l-2.2392 2.2432zm6.9828 6.9908v-4.7436l2.2432-2.2472v9.234zm21.527 2.2432v-9.234l2.2392 2.2472v4.7436zm9.2259 0-2.2432-2.2432v-4.7436l2.2432-2.2472z" style="fill:#b5b2b0;stroke-width:1.25"/>
</svg>
